<svg xmlns="http://www.w3.org/2000/svg" viewBox="0 0 4500 4500"><defs><style>.cls-1{fill:#fff;}</style></defs><title>BND-Emblem</title><g id="Ebene_2" data-name="Ebene 2"><g id="Ebene_1-2" data-name="Ebene 1"><path class="cls-1" d="M0,4500V0H4500V4500ZM1412.7,1966.62c-2.88,4.86-5.92,10.22-9.17,15.45q-47.51,76.41-95.09,152.79-104.46,167.66-209,335.27c-61.32,98-133.34,187.24-220.21,264-10.77,9.52-21.9,18.62-32.75,28.05-1.59,1.38-2.53,3.51-5.25,7.43,6.13,0,9.71.13,13.29,0,19.36-.83,38.75-1.27,58.06-2.72,34.91-2.62,69.58-7,103.84-14.6,42.38-9.36,80.11-27.74,112.81-56.31,7-6.16,14-12.45,20.77-18.94a521.58,521.58,0,0,0,68.55-81.77c16.57-24.23,32.37-49,47.92-73.92q136-217.85,271.76-435.84c3.58-5.72,6.1-12.36,12-16.25,15.85,6.71,50.41,27.87,59,36.24-3,5.15-6.09,10.53-9.37,15.77q-180,287.63-359.95,575.26c-69.7,111.6-152,212.26-254.4,295.68-2.16,1.76-5.57,3.2-4.08,8,2.05.36,4.37,1.16,6.68,1.13,50.69-.66,101.09-4.35,151.05-13.49,57.1-10.44,106.13-35.92,147-77.06,4.41-4.43,8.86-8.82,13.16-13.35,32.42-34.16,59.43-72.4,84.32-112.22q184.33-294.85,368.72-589.68c3.93-6.28,8-12.44,12.67-19.55,22.41,7.65,44.08,14.64,66.77,23.36-4.16,7.08-7.46,13-11,18.74q-209.22,335.67-418.5,671.29a1361.56,1361.56,0,0,1-88.24,125.79c-49.1,61.93-103.66,118.5-165,168.45-3.43,2.79-9,4.49-8.38,10.69a20.9,20.9,0,0,0,4.08.92c54.51-.15,108.61-4.51,162-15.69q76.14-15.93,133.19-68.81c7.32-6.8,14.5-13.78,21.44-21,33.56-34.84,61.16-74.2,86.68-115.1Q1689.05,2748.8,1830,2523q82.36-132,164.83-263.93c3.55-5.67,6-12.39,11.55-15.78,8.32-.41,12.8,3.15,14.46,10.16Q2029,2288,2037,2322.7c3.83,16.63,3.92,33.51,2.5,50.38a722.2,722.2,0,0,1-12.68,89c-16.87,79.69-48,153.61-89.83,223.21-38.83,64.57-85.15,123.45-137.58,177.41-27,27.77-55.68,53.87-83.51,80.82-2.91,2.82-5.26,6.23-9.22,11,10.82,1.74,19.35,3.62,28,4.39,26.26,2.33,52.45,0,78.63-2,6-.45,12.18-2.72,19.46.81-6.74,17.57-16.13,33.7-25.13,50q-13.17,23.78-27.25,47c-9.67,16.06-19.63,31.94-29.75,47.72s-20.48,31.41-30.93,47q-15.15,22.57-30.72,44.86c-10.64,15.3-21.06,30.78-32.11,44.89-3.29,0-5.18.24-7,0-27.16-4.19-54.23-9.1-81.48-12.53a786.76,786.76,0,0,0-112.25-5.9c-12,.21-23.69,1.85-34.91,6.08-20.67,7.8-32.93,22.54-34.14,44.82a226,226,0,0,0,1,39.28c4.17,34.46,17.11,65.09,42.66,89.51,2.58,2.46,5.69,4.36,8.84,6.74,1.89-2.14,3.45-3.28,4.16-4.81,14.25-31,39.44-47.41,71.78-54.48a212.73,212.73,0,0,1,67.1-3.58c2.19.22,4.3,1.24,7.94,2.34-3.26,4.11-5.34,7.05-7.74,9.7-8.4,9.26-17,18.33-25.35,27.64-23.36,26.08-46.44,52.44-66,81.53-8.34,12.39-15.58,25.59-22.5,38.84-7.25,13.86-7.12,28.49-3.93,43.78,7.89,37.76,52.72,79.19,91,86,4.61.82,9.45,3.36,15,0-.27-3.16-.14-6.25-.85-9.14-3.49-14.3-2.47-28.44.28-42.74,3.7-19.26,11-37.1,20.29-54.18,15-27.62,34.2-52.23,55.31-75.4,1.55-1.69,3.69-2.84,7.18-5.47,0,4.3.32,6.62,0,8.83-5.57,33.65-4.48,67.26.87,100.77,3.07,19.24,8.73,37.72,19.15,54.45,12.2,19.59,29.59,32.12,52.22,36.48,14.82,2.85,30,3.51,44.51-1.67,14.06-5,27.74-11.18,41.41-17.23,3-1.35,5.36-4.34,8.37-6.87-12.29-14.42-21.66-29.23-27-46-5.52-17.22-11-34.59-14.5-52.28-10.58-52.92-12.72-106.62-12.79-160.44,0-3,.76-6,1.22-9.35,3.13-.7,5.44-1.4,7.81-1.72,30.49-4.17,61.12-3.76,91.7-1.83,17.45,1.11,34.77,3.73,51.49,9.44,18.77,6.42,35.21,16,46.82,32.65,1.3,1.86,3.38,3.18,5.68,5.3,23-21.64,44.44-43.42,60-70.12a111.41,111.41,0,0,0,11.68-27.42c9.11-34.83-9.29-64.67-44.15-71.94a119,119,0,0,0-29.72-2.71c-20,1-39.85,3.17-59.73,5.17-24.25,2.43-48.45,5.26-72.69,7.73-3.39.34-7.5,1.91-10.4-3.4,2.1-3.81,4.19-8.25,6.85-12.31,22.88-35,45.37-70.39,69-104.94,18-26.28,37.4-51.59,56.36-77.2,2.38-3.21,5.9-5.58,9.2-8.63,24,52.09,35.06,67.9,55.13,78.33,1.08-9,2.23-17.62,3.12-26.21,5-48.76,16-96.07,34.44-141.53a403.07,403.07,0,0,1,60.37-103.16c2.15-2.66,3.9-6.79,9.46-4.66.41,2.66,1,5.65,1.31,8.66,3,26.06,6.26,52.11,9,78.2,5,48.5,9,97.08,9.35,145.87.55,80.72-3.39,161.18-14.76,241.16-7.67,53.92-19.12,107-37.7,158.29-13.68,37.77-31.09,73.65-55.24,106-30,40.08-67.57,69.89-115.22,86.36-3.38,1.17-6.61,2.77-9.2,3.86-.35,2-.73,2.71-.51,3.11,19.93,36.2,49.74,58.52,91,64.62,21.62,3.2,41.21-1.67,57.6-16.2a318.66,318.66,0,0,0,30.32-30.51c16.35-19,29.39-40.38,42.28-61.83,2.79-4.63,4-10.72,10.64-13.13,2.64,6.33,5.12,12.7,7.92,18.93,10.24,22.78,19.73,45.94,31.2,68.09,7.4,14.3,17.3,27.43,26.95,40.44a67.51,67.51,0,0,0,26,21.08c12.27,5.71,24.67,5.81,35.65-2,8.55-6.08,17-13.18,23.18-21.53,11.14-15,21.7-30.65,30.43-47.13,12-22.59,22-46.22,33-69.35,1.45-3.05,3.59-5.78,6.09-9.73,3.93,6.78,7.07,12.15,10.15,17.54,12.41,21.73,25.66,42.91,41.65,62.25,10,12.08,20.87,23.24,34,32,12.31,8.21,25.59,12.43,40.62,11.79,24.61-1,46.35-9.36,65.72-24.24a151.71,151.71,0,0,0,32-34c2-2.89,5.28-5.49,3.48-9.7a7,7,0,0,0-1.44-1.33,44.27,44.27,0,0,0-5.12-2.19c-50.56-16.63-89.73-48.36-120.62-91-19.17-26.47-34-55.33-46-85.63-26.78-67.3-40.09-137.75-48.5-209.3-5.1-43.47-7.29-87.15-9.12-130.87-4.26-101.51,2.33-202.35,17-302.76.42-2.87.31-6.46,6.08-6.64,4.06,5.2,8.81,10.91,13.16,16.91,30.79,42.46,51.9,89.54,66.58,139.71,10.73,36.69,17.07,74.22,21.85,112.06.35,2.76-.49,6.49,5,7.4,7.73-6.35,14.46-14.45,20.68-23,10.34-14.22,18.46-29.67,25.53-45.73,1.36-3.08,3.71-5.71,6.1-9.29,3.18,3.39,5.45,5.5,7.35,7.91,36.07,45.59,71.41,91.74,102.85,140.7,10.12,15.75,19.17,32.2,28.5,48.44,1.41,2.45,1.68,5.55,2.78,9.42-5,0-8.78.35-12.42-.05-23-2.51-45.91-5.48-68.91-7.73-21.75-2.12-43.54-4.06-65.36-5.09a97.3,97.3,0,0,0-42.12,7.68c-12.66,5.28-22.29,14-26.95,27.12a62.88,62.88,0,0,0-3.11,31.38c2.73,17,9.87,32.16,19.36,46.31,13.32,19.85,29.69,37,47.34,53a106.76,106.76,0,0,0,8.58,6.39c2-2.19,3.5-3.39,4.44-4.94,10.27-16.94,25.84-26.9,44.16-32.79a188,188,0,0,1,29.07-7c34.18-5.18,68.56-3.92,102.9-1.92,6.74.39,13.44,1.68,21.12,2.69.38,6.55,1.14,12.06.95,17.54-.8,24.37-.88,48.81-3.11,73-2.56,28-6,55.94-11.07,83.54-6.17,33.35-16.26,65.54-38.73,92.3-.69.82-.6,2.31-1.12,4.58,22.86,17.31,48.62,26.25,77.87,25,24.13-1,43.41-11.2,57.18-30.83,5.68-8.1,10.79-17,14-26.34a314.78,314.78,0,0,0,11.36-43.38c5.15-27.15,4.82-54.72,4.35-82.23-.1-6-1-12.07.9-20.18,3.69,3.32,6.08,5,7.95,7.22,16.69,19.49,32.57,39.66,45.24,62a356.21,356.21,0,0,1,20.5,42c8.53,21.13,12.25,43.2,8.5,66.11-.57,3.5-.08,7.18-.08,11.75,3.31,0,5.71.37,8-.06,43.77-8.34,74.46-33.75,93.43-73.36,9-18.72,9.68-38.8,3-58.5a183.6,183.6,0,0,0-13.7-30.69c-10.11-18.06-23-34.18-37.35-49.12q-33.12-34.48-66.15-69.06c-2.32-2.44-6.47-4.48-4.1-9.18,27.86-3.85,72.56,4.55,92,12.62,21.38,8.89,39.29,21.67,50.93,42.23,1.41,2.49,3.64,4.5,6.09,7.45,43.75-38.9,58.81-86.85,50.56-142.53-3.21-21.63-16.75-36.17-38.36-41.36a131.52,131.52,0,0,0-29.64-3.24,936.74,936.74,0,0,0-173.46,14.75c-8.52,1.54-17.1,2.78-25.61,4.15-2.2-2.42-4-4.1-5.47-6.06-48.36-65.33-95-131.83-135.15-202.61-11.4-20.09-21.46-40.93-31.93-61.54-1.87-3.69-2.71-7.92-4.36-12.92,5,0,8.62-.1,12.25,0,26.84.81,53.67,1.94,80.52,2.32,8,.11,16.11-1.64,24.11-2.92,2.7-.44,6.5-.16,6.93-5.7-4.52-4.14-9.48-8.79-14.55-13.31-63.63-56.75-122.15-118.2-172.2-187.41-75.67-104.66-126.12-219.37-140.25-348.91-5.37-49.25-1.83-97.21,13.78-144.31,2.94-8.86,7.33-14.15,17.84-13,5.55,4.77,8.61,11.74,12.52,18q200,320.4,400,640.87c22.5,36,44.87,72.17,68,107.81a551.54,551.54,0,0,0,75.57,92.92c38.8,38.23,84.21,64.28,137.65,75.8,54.6,11.77,109.93,16.42,165.7,16.42,1.49,0,3-1.32,5.65-2.6-4.5-4-8.16-7.13-11.77-10.36-24.68-22.08-50.22-43.28-73.85-66.42-66.41-65.06-122.55-138.45-171.72-217.17q-213.48-341.85-426.54-684c-2.93-4.69-5.46-9.64-8.86-15.68a455.87,455.87,0,0,1,66.7-22.94c4.65,7.18,9.12,13.85,13.38,20.66q183.92,294,367.92,588c14.59,23.26,30.39,45.83,46.64,68a445.35,445.35,0,0,0,68.61,74.18c30.81,26.55,65.56,45.26,105.21,55.18,58.65,14.67,118.4,18.38,178.48,19.32,2.3,0,5.15.06,5.94-4.3-3.74-3.27-7.91-6.82-12-10.48-24.13-21.76-49.06-42.7-72.2-65.46-67.64-66.5-124.7-141.48-174.94-221.77Q3178,2545.13,3081.58,2391q-84.52-135.06-169-270.16c-3.51-5.61-8.37-10.75-9.09-18.58,19.58-11.47,38.16-23.85,58.31-33.72,6.55,4.75,9.13,11.32,12.7,17q144.93,231.06,289.75,462.18c9.63,15.35,19.37,30.65,29.62,45.58a578.68,578.68,0,0,0,72,86.21c42.4,41.55,92.63,66.83,151.17,77,49.44,8.61,99.25,11.52,149.23,13.21,1.59.06,3.21-1,6.54-2.07-3.92-3.71-6.83-6.62-9.9-9.35-24.26-21.6-49.36-42.34-72.69-64.9-67.3-65.08-123.82-138.92-173.63-218-21-33.31-41.7-66.78-62.52-100.2q-122.91-197.28-245.74-394.63c-3.18-5.12-8.11-9.62-7.72-17.77l47.65-46.26c7.17,4.45,9.64,11.15,13.21,16.83q93.18,148.45,186.18,297c14.27,22.76,28.4,45.63,43.24,68,21.81,32.88,46.28,63.68,74.57,91.33,37.89,37,81.66,63.54,133.67,75.63,56.35,13.1,113.57,17.11,171.22,16.78,1.43,0,2.85-1.67,5.1-3.07l-13.18-11.51c-14.12-12.33-28.62-24.25-42.3-37.05-91.91-85.92-169.27-184-236-290.15-74.82-119-146.49-240-219.48-360.15-2.54-4.19-4.54-8.7-6.75-13,11.25-24.94,22.2-49.21,33.7-74.68,6.57,5.12,9.31,11.51,12.91,17.11q69.33,108.07,138.63,216.18c13.21,20.48,27.58,40.19,41.18,60.41,11,16.29,24.92,29.56,40.41,41.39,28.06,21.42,59,37.44,92.14,49.42,66.06,23.89,134.81,31.34,204.46,33,1.32,0,2.69-1.56,5.13-3.06-4.08-3.47-7.37-6.21-10.59-9-16.48-14.38-33.41-28.28-49.32-43.26-90.68-85.41-166.32-183.2-232.39-288.27-65.86-104.72-128.9-211.2-194.07-316.36-18.59-30-34.65-60.58-41.59-95.42-.36-1.83-1-3.61-1.51-5.41-29.34-102.68-81.68-191.4-160.35-264.15-2.54-2.35-4.71-5.1-8.21-8.93,12.62-6.15,23.83-11.42,34.85-17s22.4-10.23,34.18-19.72c-5.52-.89-8.33-1.46-11.16-1.78-14.9-1.72-29.85-3-44.69-5.11-39.65-5.63-78.45-15.26-117-25.8-45.78-12.5-91.41-25.58-137.37-37.42-30.86-8-62.27-13.6-94.28-14.66-20.09-.67-40,.3-59.05,7.74-21.94,8.57-36,24-41.69,47a107.54,107.54,0,0,0-1.28,44.64c4.68,27,19.15,47.43,43.34,60a174.41,174.41,0,0,0,36.55,14.12c34.86,9,70.41,9.84,106.12,6.12,15.45-1.61,30.89-3.47,46.52-3.2,14.75,19.34,27.38,39.42,39.18,60,18.09,31.53,33.18,64.36,43.22,99.43,10.14,35.37,13.05,71.23,7.94,107.61-7.19,51.15-29.87,94.91-64.7,132.65-26.1,28.27-56.59,51-89.62,70.4-62.73,36.92-130.17,60.47-202.33,69.86-32.78,4.27-65.76,6.93-99.41,2.89-2.29-3.6-4.8-7.14-6.89-10.91-15.14-27.32-30.37-54.6-45.19-82.1-5.61-10.42-10.59-21.24-15.2-32.16-12.35-29.25-18.18-59.74-15.25-91.52,1.37-14.9,3.17-29.83,6-44.53,8.5-44.91,22.74-88.22,37.35-131.44q15.9-47,30.11-94.59a438.46,438.46,0,0,0,16.29-82.63c4.95-51.27-5.69-99.43-30.58-144.43-7.84-14.19-16.19-28.1-24.87-43.11,4.86-4.9,9.52-9.84,14.44-14.5a242.59,242.59,0,0,0,39.21-47.64c1.78-2.85,2.34-6.47,3.83-10.77-9-.95-16.18.58-23.48,2.2-18.39,4.08-37,6.23-55.84,4.36-27.35-2.71-54.73-5.24-82-8.56-40.3-4.91-80.46-11.09-120.83-15.43-19.18-2.06-38.69-1.71-58-1.28-8.56.19-17.32,2.49-25.52,5.24-10.15,3.4-16.65,10.72-17.63,22-.3,3.49-1.1,6.93-1.85,11.51-9.19-1.29-17.24-1.94-25.07-3.6-15.88-3.38-31.67-7.18-47.44-11-38.39-9.42-76.94-8.4-115.27-.6a144.83,144.83,0,0,0-36.86,13.21c-26.57,13.66-38.52,37.18-34.63,66.7a196.45,196.45,0,0,0,7.88,34.61c9.1,28.1,23.2,53.86,39.09,78.65.89,1.39,2.83,2.11,4.49,3.29,5.83-2.8,11.41-5.51,17-8.18,17.54-8.36,35.61-15.33,54.71-19.11,43-8.51,80.51,1.7,111.25,33.84,17.93,18.74,31.14,40.55,41.54,64.17.68,1.54.49,3.46.81,6-2.53.79-4.76,2-7.06,2.14-21.19,1.52-42.38,3.15-63.61,4.1a169.73,169.73,0,0,1-26.15-1.37c-24.28-2.7-47.87-8.77-71.49-14.81-21.17-5.42-42.46-10.36-63.78-15.18-6.55-1.48-13.39-3.36-20.69.42-1.76,12.06,3.65,21.63,10.94,30.46,9.75,11.82,22.49,19.74,35.93,26.56,20.14,10.23,41.52,17.19,63.24,23.16,37.42,10.28,75.71,16.21,113.89,22.7,15.34,2.6,30.66,5.3,47,8.12-1,3.92-1,7.27-2.57,9.59-16.61,24.89-35.27,32.22-64.24,25.57a77.85,77.85,0,0,1-9.08-2.3c-21.15-7.59-42.24-15.33-63.39-22.94-21.72-7.81-43.39-15.82-65.29-23.12-7.63-2.55-15.83-3.62-23.86-4.66-9.89-1.29-13.76,3.52-11.23,13.47,3,11.75,9.21,21.81,16.86,31,11.63,14,25.09,26.16,39.49,37.23,34.76,26.75,71.47,50.4,111.14,69.29,3.83,1.82,7.44,4.11,11,6.12-.75,2-1,3.31-1.67,4.27-2.94,4-6,8-9.06,12-45.24,58.28-89,117.61-127.39,180.71-24.07,39.56-46.11,80.15-60.81,124.32-.76,2.27-2.36,4.27-3.72,6.68-4,.25-7.65.67-11.34.68a592.35,592.35,0,0,1-184.45-28.46c-57.6-18.49-111.16-44.86-158.62-82.81-25.57-20.46-48-43.84-65.38-71.72-38.93-62.49-46.51-129.6-27.83-200,15.62-58.87,45.64-110.58,81.47-159.22.69-.94,2-1.46,4.25-3.1,9.93.94,21.13,1.52,32.19,3.11,31.25,4.49,62.36,3.41,93.36-1.74,22.29-3.71,44-9.56,63.59-21.33,20.83-12.49,35.06-30,40.24-54a105.37,105.37,0,0,0-.35-46.48c-5.52-23.85-20-40-42.95-48a131.18,131.18,0,0,0-27.28-6.25c-29.49-3.64-58.64.23-87.59,5.59-46.12,8.54-91.27,21-136.21,34.3C1460,1015.47,1392.94,1033,1323.31,1038c-1.37.1-2.66,1.35-5.32,2.79,22,14.29,45.57,22.71,67.43,36.18-4.11,4.23-7,7.48-10.13,10.41-60.07,55.69-104.76,122-137.14,197-14.43,33.4-23.31,68.55-33,103.42a119.92,119.92,0,0,1-13.32,30.73c-69.15,113-137.91,226.21-207.4,339-48,77.83-102.5,150.93-162.69,219.75-38.75,44.3-80.35,85.71-126,122.94-2.58,2.11-7,3.56-5.32,8.94,1.57.32,3.3,1,5,1,52.58-1.54,104.81-6.23,156-19.26,47.62-12.12,92.48-30.52,132.31-59.94,18.22-13.46,34.6-28.69,47.39-47.59,14.7-21.74,30.22-43,44.4-65,44.59-69.38,88.68-139.09,133.09-208.6,3.6-5.64,5.85-12.5,12.33-16.07l33.72,75.35c-3.16,5.38-6.24,10.8-9.47,16.13-64.92,106.78-130.2,213.35-194.65,320.41a1712.57,1712.57,0,0,1-109,159.23c-58.75,76.61-123.09,148-198.47,208.8-2.19,1.76-5.68,3.19-3.92,8.14,2.68.2,5.65.63,8.61.62,47.59-.07,94.92-3.45,141.81-11.73,50.14-8.86,95.79-27.81,135.22-60.69a461,461,0,0,0,54.53-54.06c25.29-29.48,47.39-61.27,67.89-94.21q102-163.95,204-327.89c3.58-5.75,7.41-11.33,11.38-17.37,16.76,15.94,32.58,31,48.33,46.06C1411.59,1963.29,1411.83,1964.69,1412.7,1966.62Zm2117.3,1749,2.53-2.79,324.33,100.76c16.83-17.77,35.73-32.79,51.36-51.73-2.86-3.34-4.75-5.79-6.88-8q-123-127.47-246-254.86c-2.43-2.52-5.43-4.49-8.74-7.19-11.45,11.16-22.21,21.56-32.85,32.08-1.24,1.22-1.87,3.06-3.28,5.47,2.69,3.23,5.23,6.65,8.16,9.71q24.63,25.74,49.41,51.31,71,73.49,141.87,147c3.13,3.25,7.54,5.93,8.27,13.15-111.75-34-221.69-68.62-332.2-102.26-3.38,2.8-6.37,5-9,7.54-13.46,13-26.84,26-40.12,39,8.36,12.21,245,258.08,260.79,271,13.51-10.55,25.68-22.65,37.94-36.47-17-18.58-34.21-35.7-51-53.2q-25.93-27.06-52.05-54c-16.92-17.53-33.9-35-50.76-52.6C3564.51,3751.58,3546.9,3733.94,3530,3715.65Zm567.35-1657c120-23.44,238.83-46.67,357.52-70.39,3.54-.71,6.95-2.07,11.29-3.39-2.64-14.17-5-27.64-7.76-41-.7-3.37-2.85-6.44-4.5-10-6.47,1.08-12,1.87-17.47,2.94q-133.28,26.13-266.53,52.28c-2,.39-4.74,2.31-6.15-2.85,28.28-23.66,56.94-47.66,85.63-71.63q43.86-36.66,87.76-73.29c28.67-24,57.54-47.78,86.24-72.22-3.79-24.29-7.89-47.43-14.27-71.47-6.9.94-13,1.48-19,2.63-22.69,4.36-45.34,8.93-68,13.38q-135.09,26.54-270.19,53.13c-4,.79-7.64,3.1-11.63,4.77,4.1,17.36,4.37,34.37,11.64,49.69a54.13,54.13,0,0,0,6.47-.41q96.51-18.93,193-37.94c28.18-5.54,56.34-11.2,84.57-16.49,3.73-.7,8.18-3.58,12.86,1.66-22.1,18.58-43.95,37-65.82,55.34q-33,27.73-66.08,55.4-33.76,28.3-67.52,56.6c-21.89,18.45-44.1,36.56-65.92,55.59C4087.87,2013.8,4091.36,2035.83,4097.35,2058.61ZM719.49,3864.21c6.55-5.62,11.33-9.55,15.93-13.69q41.08-37,82.11-74.13,83.51-75.39,167-150.84c4.86-4.41,11.16-7.9,13.34-15.22-11.51-12.82-21.55-26.25-35-37.54-5.33,4.53-10.13,8.41-14.71,12.54Q919.5,3611,891,3636.84q-71.67,64.69-143.4,129.35c-3.29,3-6.09,7.08-13.18,7.71l113.91-329.37c-7.69-8.71-14.86-17.3-22.55-25.41-8-8.43-14.49-18.48-24.75-25.13-5.42,4.76-10.15,8.81-14.78,13q-68.91,62.18-137.8,124.37-57.06,51.51-114.08,103.08c-3.93,3.57-9.72,6.1-9.63,13.58,10.88,11.95,20.71,25.51,34.76,36.63,6.3-5.6,11.88-10.49,17.39-15.45q97.46-87.93,195-175.76c2.32-2.09,3.88-7,10-4-36.53,106.64-74.3,213-111,319.77,2.75,3.51,4.86,6.55,7.31,9.29C691.45,3833.31,704.86,3848.05,719.49,3864.21ZM573.1,1536.87c-5.16-2-8-3.26-10.85-4.25q-45.16-15.52-90.37-31Q352.23,1460.79,232.54,1420c-5.16-1.75-10.1-5-16.91-2.21-2.53,7.1-5.52,14.59-7.84,22.28-2.47,8.17-6.74,15.93-7.13,25.53,6.17,2.43,11.83,4.9,17.65,6.89q67.33,23.05,134.74,46c38.41,13.1,76.85,26.12,115.19,39.44,3.49,1.22,9.14.7,9.56,7.52-2.45.65-4.71,1.44-7,1.84-94.12,16.42-188.28,32.66-282.36,49.31-14.57,2.58-29.66,3.38-43,8.9-14.63,35.8-20.53,55.09-21,69.35Q299.89,1755.05,477,1815.23c7.49-17,13.45-33.06,17.36-50.62-6-2.29-11.1-4.43-16.34-6.23q-38.07-13.12-76.2-26.1-92.16-31.52-184.31-63.07c-3.26-1.12-7.82-1-7.32-7.17q56.94-10,114.17-20c37.52-6.6,75.08-13,112.53-19.89,38-7,76.19-12.57,114.26-20.86Zm1229,2903.61c1.88-5.86,3.36-9.92,4.48-14.08q45.2-167,90.26-334.11c1.24-4.6,1.57-9.45,2.48-15.11-12.41-3.43-23.72-6.69-35.11-9.67-29.56-7.73-59-16-88.77-22.77-22-5-44.42-6.54-66.91-2.31-27.55,5.18-48.13,19.77-60.94,44.85a111.3,111.3,0,0,0-11.65,37.36c-3.86,32.26,6.7,59,32.28,79.31,5.33,4.24,11.49,7.45,17.26,11.14,2.36,1.51,5.89,2.24,4.55,6.12-9.43,1.56-18.73,2.63-27.81,4.68-27.69,6.23-46.48,23.07-56.9,49.28a123.17,123.17,0,0,0-5.5,17.85c-8.18,35.63,1,65.58,30.41,88a148,148,0,0,0,28.72,17.36,323.93,323.93,0,0,0,42.08,15.42c29.33,8.55,58.93,16.2,88.44,24.15C1793,4439,1796.67,4439.43,1802.09,4440.48ZM665.4,3189.42c-2.88-6.74-4.68-11.32-6.77-15.78q-14.29-30.53-28.73-61c-5.06-10.73-9.94-21.55-15.28-32.14-13-25.83-28.86-49.68-49.93-69.74-32.78-31.23-71.47-47.58-117.11-45.31-50.3,2.49-95.2,20-133.6,52.35s-57.41,74.62-59.47,124.69c-1.5,36.34,6.37,70.72,21.51,103.54,14.39,31.18,29.09,62.21,43.77,93.26,1.52,3.22,3.76,6.1,6.32,10.15C439.19,3296.32,551.4,3243.38,665.4,3189.42Zm3816.91-849.69c-124.22-12.11-246.51-24-368.81-35.9a3.7,3.7,0,0,0-1.72.65c-.55.26-1.05.61-2.72,1.62-.63,4-1.65,8.74-2.12,13.58-3,31.05-5.49,62.17-9,93.16a262,262,0,0,0,1.62,74.62c11.18,65.2,47.11,110.27,109.9,132.67a233.14,233.14,0,0,0,92.08,13.17c59.06-3.33,104.51-30.42,137-79.49a199.26,199.26,0,0,0,31.88-85.22c4.91-38.36,8.1-76.94,11.93-115.43C4482.62,2349.55,4482.31,2345.86,4482.31,2339.73Zm-2403-2088.44c9.38-4.79,15-7.4,20.37-10.45,22.9-13,38.08-31.93,43.77-57.9,3.14-14.32,1.57-28.51-1.64-42.68-8.79-38.83-33-62.2-72.1-69.1a204.56,204.56,0,0,0-56-2.52c-34.17,3.41-68.31,7.14-102.43,11-4.71.52-9.27,2.28-15,3.75,2.24,21.51,4.2,41.93,6.5,62.31,5.6,49.62,11.43,99.22,17,148.85,5.51,49,10.77,98,16.31,147.05.53,4.7,2.33,9.26,3.66,14.37,9.22-.89,17.22-1.67,25.22-2.43,8.56-.82,17.23-1.11,25.57-4.57,0-4.56.36-8.26,0-11.87-5.31-47.15-10.77-94.28-16-141.42-.39-3.47.23-7.06.39-11,17.43-3.93,34.28-5,51-5.83a40.44,40.44,0,0,1,34.64,15.53,183.59,183.59,0,0,1,14.82,21.54c19.68,33.33,39.08,66.83,58.63,100.23,3.12,5.32,6.49,10.49,9.92,16,19.85-.05,38.82-3.22,57.7-5.82,1.64-7.06-3.13-11.1-6-15.68q-36.81-59.82-74-119.43C2111.83,275.23,2101.48,259.66,2079.36,251.29Zm-432,283.63c17.76-6.29,33.35-12.2,48-20.19-.22-2.63.09-4.65-.58-6.26q-69.63-168.84-139.49-337.58c-.4-1-1.89-1.49-3.88-3-15.75,5-31.72,11.07-47.28,20.21,19.79,48.2,39.18,95.43,58.84,143.3-4.17,2.3-7.24,4.4-10.61,5.78-51.28,21.09-102.3,42.83-154.67,63.59-3.32-7.34-6.3-13.45-8.9-19.72-15.3-36.91-30.48-73.88-45.81-110.78-1.84-4.42-4.33-8.57-6.39-12.59-22.15,5.55-39.42,13.31-47.78,21.23,9.89,29.78,135.51,331.79,143.68,344.84,15.92-5.64,32-11.41,47.48-20.58-2.82-7.32-5.13-13.71-7.72-20q-25-60.6-50.06-121.19c-2.06-5-3.45-10.28-5.06-15.13,13.75-8.13,146.59-63.25,164.15-68.2,9.47,15.93,14.93,33.87,22.32,50.91s14.26,34.64,21.43,51.95S1639.42,516,1647.33,534.92ZM3406.52,822.13c3.11-3.68,5.68-6.29,7.76-9.25,60.5-86.28,192.93-285.68,201.36-303.37-13-11.06-27.69-20-43-29.33-4.65,6.62-8.68,12.15-12.49,17.82q-33.43,49.77-66.85,99.56c-2.66,3.93-6,7.37-9.78,11.86-47.62-32-94.22-63.28-140.78-94.64-2-1.31-3.49-3.26-5.92-5.57,3.47-5.65,6.51-11,9.9-16q33.34-49.85,66.76-99.63c3-4.48,5.42-9.33,8.37-14.47-14.29-10.94-27.92-20.43-43.23-28.83-3.2,4-6.07,7.15-8.49,10.64-73.5,105.9-192.29,284.84-199.79,300.87,15,13.2,31.13,23.52,44.39,28l31.07-46.16c10.45-15.55,20.81-31.17,31.39-46.63s20-31.43,31.85-46.11c3.17,1.7,5.47,2.68,7.51,4q66.9,44.88,133.74,89.9c2.39,1.61,4.29,3.94,6.93,6.43-10.88,16.33-21.24,31.91-31.64,47.45s-21.1,31-31.26,46.72-21.88,30.12-30.61,48ZM485.46,952c-12.39,15.54-23.25,30.57-33.29,46.08,1.94,3.71,3.22,6.53,4.81,9.17q101.64,168.45,203.36,336.86a3.55,3.55,0,0,0,1.42,1.2,6.31,6.31,0,0,0,1.71.29c10.53-9.9,24.19-28.59,31.78-43.66-16.71-28.71-36-56.28-53-85.87l106.84-148.37c5.77,1,10.64,1.69,15.4,2.83,24.89,6,49.74,12.14,74.64,18.11,3.48.83,7.13,1,10.94,1.44,9.87-13.78,19.35-26.94,28.71-40.19,1-1.42,1.29-3.36,1.79-4.72-1.12-1.2-1.78-2.58-2.71-2.79C747.69,1012.38,617.49,982.42,485.46,952Zm761.2,3291.09c3.4-5,6.66-9.47,9.51-14.17q22.85-37.64,45.54-75.38,29.55-48.91,59.11-97.83c12.61-21,23-42.92,28.34-67,10.87-49.27-1.25-91.57-38.7-125.89a189.81,189.81,0,0,0-65.42-39.33c-18.44-6.52-37.33-9.85-57-7.85-28.47,2.89-52.53,15.11-73.68,33.78-17.49,15.45-31.5,33.78-43.53,53.65q-53.82,89-107.45,178.1c-2.16,3.57-3.68,7.53-6,12.33l43.11,25.94c7.32-3.84,9.2-10.2,12.34-15.38,32.75-53.92,65.08-108.09,98.06-161.88,8.78-14.32,18.91-27.89,29.25-41.16,8.1-10.39,18.42-18.63,29.95-25.21,17.05-9.72,35.19-12.68,54.22-7.82a112.89,112.89,0,0,1,55.6,33.09,70.45,70.45,0,0,1,19.47,49.31,114.14,114.14,0,0,1-6.35,36.74c-5.76,17.29-14.29,33.23-23.68,48.77q-49.42,81.79-98.72,163.67c-3.13,5.2-7.95,9.81-7.5,17.43A304,304,0,0,0,1246.66,4243.13Zm2771-988.88c-3.41,6.24-6.22,11.74-9.35,17.05-18.08,30.65-36.27,61.24-54.3,91.93-2.42,4.12-4.14,8.66-6.57,13.81,7.25,4.49,13.46,8.59,19.91,12.26s12.09,8.61,20.25,10c3.6-5.71,7-10.86,10.17-16.17,18.13-30.63,36.15-61.31,54.32-91.91,2.44-4.1,5.52-7.82,8.89-12.54,15.95,9.34,31.1,17.95,46,27,15.31,9.32,31.57,17.21,46.52,29.18-12.81,23-26.28,44.61-39,66.69s-26.63,43.42-38.19,65.85c13.6,12.17,28.17,20.4,40.11,22.92,16.51-23.37,99.34-165.24,104.37-178.78-.76-1-1.33-2.22-2.31-2.87-3.12-2.07-6.37-3.94-9.6-5.84q-153.21-90.49-306.45-181a4.1,4.1,0,0,0-1.79-.37c-.6,0-1.2.08-3.32.24l-104.94,177.63c13.08,11.59,27.21,19.72,41.35,23.79,12.86-21.71,25.78-43.73,38.9-65.63s25.49-44.17,39.1-65.47C3926.5,3198.42,3998.77,3240.8,4017.66,3254.25ZM98.4,2739c2.07,1.16,2.57,1.66,3.11,1.72a20.47,20.47,0,0,0,5.55.31q179.12-30.51,358.19-61.18c.55-.09,1-.64,1.5-1.05s.84-.9,2.11-2.3c-.3-3.94-.3-8.91-1.11-13.73Q453,2575,437.9,2487.32c-.92-5.33-.79-11.33-6.18-15.71-13.61,2.53-27.93,3.06-41.77,7.93-1.28,7.73.44,14.4,1.58,21.07,6.73,39.38,13.6,78.74,20.23,118.15.79,4.69,2.81,9.77-.86,14.26-21.77,6.19-104.48,19.57-118.28,19-1.13-4.56-2.61-9.29-3.43-14.13-6.53-38.15-12.9-76.33-19.44-114.48-.49-2.86-1.92-5.56-3.14-9-8.15,1.06-15.56,1.77-22.86,3s-14.28,3.1-21.25,4.65c0,3.84-.35,6.36.06,8.75,6.6,38.77,13.35,77.52,19.9,116.3.8,4.73.6,9.63.85,14.14-20.74,6.29-93.81,18-106.75,17.06-9.5-49.75-16.5-100.28-26.59-151.23-16.43,1.87-31.73,2.24-46.28,9.29C75.49,2605,86.41,2672.66,98.4,2739ZM4198.45,1188.23c-6,3-11.05,5.39-16.05,7.91q-66.07,33.27-132.13,66.55-87,43.8-173.94,87.63c-4.23,2.13-9.87,3-11.22,10,28.22,56.2,56.78,113.09,85.38,170,2,3.9,4.18,7.66,6.33,11.46a4,4,0,0,0,1.38,1.23,24.66,24.66,0,0,0,2.57,1.11c6.07-2.92,12.91-5.89,19.43-9.46s14-5.27,19.51-12.61c-22.41-45.67-46-90.84-68.7-137.65,12.68-7.84,25.18-13.38,37.29-19.6,11.67-6,23.25-12.14,35.14-17.65,12.27-5.69,23.58-13.69,37.85-17.09,3.19,5.87,6.29,11.21,9.06,16.71q24.48,48.46,48.89,97c1.88,3.72,4.41,7.12,7.19,11.55,14.09-7,27.7-12.75,40.84-21.87-7.19-14.43-14.12-28.35-21.06-42.25s-14.08-27.86-20.92-41.89-14.88-27.17-20-41.69c17.06-11.36,81.18-43.29,96.71-48,2.55,4.51,5.45,9.18,7.92,14.07,18.58,36.77,37,73.61,55.64,110.36,2.15,4.23,5.08,8.07,7.95,12.57,7.88-3.72,14.72-6.64,21.26-10.15s13.94-5.46,18.7-11.4C4282.63,1348.79,4207.53,1200.9,4198.45,1188.23ZM68,2031.69c-13.39,34.38-20.71,68.3-18.13,103.83a138.75,138.75,0,0,0,12.63,48.68c28,60.39,115.25,71.58,156.51,24.62,9.43-10.72,17.62-22.65,25.39-34.67s13.91-25.16,21.54-37.3c6.63-10.54,13.63-21,21.72-30.41,25.44-29.62,75.3-24.53,93.18,14.9,7.37,16.26,10.37,33.28,7.62,51.15s-8.13,35.26-14.92,52.1c-2.08,5.16-4.12,10.34-6.53,16.41,16,5.54,31.74,7.85,48.3,8.84,15.11-32.21,23-65.13,21.31-100.18-1-20.72-4.09-41-12.73-60.1-10.18-22.52-25.71-40-48.68-49.63-43.4-18.14-97.64-16.47-134.84,31.87-9.49,12.33-17.51,25.81-25.8,39-7.63,12.16-14.15,25.05-22.24,36.88a124.11,124.11,0,0,1-19.69,22.38c-18.13,16.18-55.48,12.46-68.21-16a78.84,78.84,0,0,1-6.94-29c-1-22.87,3.44-44.7,12.15-65.79,2.33-5.61,6.58-10.71,5.46-18.58C100.29,2037.53,85.61,2032.47,68,2031.69ZM3251.87,3836.77c-22.87,3.17-44.54,8.75-64.91,18.42-25.08,11.91-47.34,27.86-65.31,49.27-19.91,23.73-28.7,50.8-23.9,81.77,2.33,15,8.15,28.79,15.74,41.81,18.32,31.42,45.81,48.82,81.89,52.07,13.63,1.23,27.43,1.06,41.14.93,18.11-.17,36.21-1.43,54.3-1.2a84.44,84.44,0,0,1,25.69,4.2c28.18,9.56,39.13,42.58,22.86,67.46-6.26,9.55-14.67,17-24.21,23.13-16.44,10.58-34.12,18.16-53.45,21.63-7.26,1.31-14.7,2-22.57,5.93,4,10.87,7.69,21.39,11.64,31.82,1.51,4,3.5,7.77,5.43,12,3.06-.19,5.54,0,7.88-.53,34.66-7.42,66.67-20.78,94.55-43a122.09,122.09,0,0,0,31.44-36.79c13-23.7,15.94-48.67,7.17-74.18-13.52-39.3-39.54-64.62-82.46-68.73-13.61-1.3-27.39-1.2-41.09-1-13.1.2-26.17,1.62-39.27,2a197.42,197.42,0,0,1-26.2-.55c-15.25-1.54-29.22-6.47-39.94-18.24-17.08-18.73-19.76-45.11-6.56-67.72,10.12-17.32,25-29.35,43.22-37.3,17.84-7.79,36.55-12.52,55.74-15.58,3.38-.53,6.56-2.34,10.37-3.75C3265.37,3865,3260,3850.58,3251.87,3836.77ZM2984.25,509.66c-6.53,0-12.05-.06-17.57,0a190.43,190.43,0,0,1-68.08-11.2c-50.38-18.38-83-53.63-92-106.7-8.92-52.4,6.36-99.26,42.65-138.2,25.5-27.34,57.74-40.85,95.39-40.93q60.72-.12,106.3,39.87c3.6,3.16,7.42,6.07,12.37,10.1l18.93-45.75c-1.72-2.3-2.59-4.06-4-5.21-3.84-3.19-7.75-6.33-11.88-9.13-30.55-20.73-64.39-32.76-100.8-38a194,194,0,0,0-69,2.14c-53.88,11.66-93.93,42.21-120.92,89.94-16.53,29.25-25.58,60.94-28.4,94.38-3.77,44.68,6.59,85.61,33.31,121.93,17.74,24.11,40.66,42.17,67.11,55.9,29.15,15.13,60.26,24.11,92.6,28.85,10.4,1.52,21,2.34,32.4-.2C2977.44,542,2981.93,526.76,2984.25,509.66ZM1202.73,692c-3.92,6.39-6.45,10.66-9.13,14.84a197.37,197.37,0,0,1-49.51,53.17c-52.3,38.39-119.52,37.13-170.26-3.28-23.39-18.64-41.17-41.8-52-69.8-20.06-51.9-11.74-99.39,24.07-141.68,21.56-25.45,48.91-42.32,81.47-50.44,4-1,7.9-2.63,13.46-4.51-5.2-8-9.41-14.82-13.95-21.4s-8.1-14-14.85-19.79c-4.2,1.05-8.52,1.65-12.48,3.18-57.18,22.12-100.51,59.84-127,115.46-19,39.87-22.71,81.8-9.69,124.09,19,61.62,58,107.1,116,135.31a156.13,156.13,0,0,0,94.9,14c67.47-10.92,117.5-49,157.74-102,2.1-2.77,3-6.5,4.54-10.15C1225.18,717,1214.81,705.45,1202.73,692ZM3889.84,835.66c-18.11,15.69-34.56,30-51.06,44.22s-33.14,28.53-49.72,42.79l-48.3,41.56c-16.57,14.26-33.19,28.48-49.68,42.83s-33.32,28-49.73,43.43c11.25,14.56,21.83,28.14,35.46,40.45l248.26-213.59c4.91,5.36,9.2,9.81,13.23,14.48,18.37,21.28,36.62,42.67,55,63.9,2.72,3.13,6.17,5.63,9.71,8.8,6.49-5.49,12.33-10.16,17.84-15.2,5.34-4.88,12-8.68,15.88-16.33-62.29-72.45-124.11-144.35-186.32-216.69-13.16,10.14-25.65,19.08-35.63,31.76C3839.71,777.11,3864.06,805.55,3889.84,835.66ZM2867.17,4354c-2.23-7.08-4.06-12.32-5.54-17.66-5.18-18.63-10.21-37.3-15.34-55.95q-31.51-114.57-63.05-229.14c-1.29-4.7-1.35-10.06-7.85-13.33-15,4.54-31.61,6.89-47.46,14.52,1.66,6.63,3.05,12.67,4.68,18.64q39.07,142.57,78.11,285.15c1.08,3.94,1.05,8.17,1.59,12.62-36.76,11.39-73.3,19.32-109.21,31.22,1.72,15.87,6,29.83,11.78,44.25,4.91-.87,9.19-1.27,13.27-2.39q125.42-34.44,250.78-69.08c4-1.11,7.76-3,12.19-4.79-3.45-15.43-6.38-29.82-13.12-44.21ZM2178,4307.23c-.81,44.11,37.14,81,81.45,80.44,44.68-.61,81-37.06,80.38-81.83-.74-49.65-42.28-80.76-81.77-80.47C2216.68,4225.68,2176.57,4260.52,2178,4307.23ZM4369.61,2960.87c-3.15-1.84-4.63-3.07-6.32-3.65q-172.74-58.84-345.5-117.58a3.46,3.46,0,0,0-1.86,0,20.15,20.15,0,0,0-3.12,1.76c-4,11.59-8.56,24.47-12.93,37.4-1,2.87-1.4,5.92-2.24,9.62,3.77,1.78,7,3.58,10.34,4.83,80.42,29.64,326.32,112.21,345,115.73C4359.53,2993.88,4364.58,2978,4369.61,2960.87Zm-1894.45-2519c12.17-124.35,24.16-246.75,36.07-369.15.11-1.06-.8-2.23-1.77-4.75-16.31-1.53-33-6.2-50.38-3.61-.85,2.74-1.72,4.44-1.9,6.22q-5.83,57.8-11.52,115.61-9.06,91.36-18.07,182.74-2.84,28.9-5.18,57.86c-.28,3.45.77,7,1.25,10.85C2440.71,439.12,2456.51,442.78,2475.16,441.91Z"/><path d="M1412.7,1966.62c-.87-1.93-1.11-3.33-1.94-4.12-15.75-15.1-31.57-30.12-48.33-46.06-4,6-7.8,11.62-11.38,17.37q-102,163.92-204,327.89c-20.5,32.94-42.6,64.73-67.89,94.21a461,461,0,0,1-54.53,54.06c-39.43,32.88-85.08,51.83-135.22,60.69-46.89,8.28-94.22,11.66-141.81,11.73-3,0-5.93-.42-8.61-.62-1.76-4.95,1.73-6.38,3.92-8.14,75.38-60.84,139.72-132.19,198.47-208.8a1712.57,1712.57,0,0,0,109-159.23c64.45-107.06,129.73-213.63,194.65-320.41,3.23-5.33,6.31-10.75,9.47-16.13l-33.72-75.35c-6.48,3.57-8.73,10.43-12.33,16.07-44.41,69.51-88.5,139.22-133.09,208.6-14.18,22.07-29.7,43.28-44.4,65-12.79,18.9-29.17,34.13-47.39,47.59-39.83,29.42-84.69,47.82-132.31,59.94-51.14,13-103.37,17.72-156,19.26-1.71,0-3.44-.66-5-1-1.73-5.38,2.74-6.83,5.32-8.94,45.67-37.23,87.27-78.64,126-122.94,60.19-68.82,114.73-141.92,162.69-219.75,69.49-112.77,138.25-226,207.4-339a119.92,119.92,0,0,0,13.32-30.73c9.73-34.87,18.61-70,33-103.42,32.38-75,77.07-141.34,137.14-197,3.16-2.93,6-6.18,10.13-10.41-21.86-13.47-45.41-21.89-67.43-36.18,2.66-1.44,4-2.69,5.32-2.79,69.63-5.08,136.68-22.57,203.24-42.31,44.94-13.33,90.09-25.76,136.21-34.3,29-5.36,58.1-9.23,87.59-5.59a131.18,131.18,0,0,1,27.28,6.25c22.91,8.07,37.43,24.18,42.95,48a105.37,105.37,0,0,1,.35,46.48c-5.18,24-19.41,41.49-40.24,54-19.64,11.77-41.3,17.62-63.59,21.33-31,5.15-62.11,6.23-93.36,1.74-11.06-1.59-22.26-2.17-32.19-3.11-2.29,1.64-3.56,2.16-4.25,3.1-35.83,48.64-65.85,100.35-81.47,159.22-18.68,70.42-11.1,137.53,27.83,200,17.36,27.88,39.81,51.26,65.38,71.72,47.46,38,101,64.32,158.62,82.81a592.35,592.35,0,0,0,184.45,28.46c3.69,0,7.37-.43,11.34-.68,1.36-2.41,3-4.41,3.72-6.68,14.7-44.17,36.74-84.76,60.81-124.32,38.39-63.1,82.15-122.43,127.39-180.71,3.07-4,6.12-7.91,9.06-12,.7-1,.92-2.28,1.67-4.27-3.6-2-7.21-4.3-11-6.12-39.67-18.89-76.38-42.54-111.14-69.29-14.4-11.07-27.86-23.2-39.49-37.23-7.65-9.23-13.87-19.29-16.86-31-2.53-9.95,1.34-14.76,11.23-13.47,8,1,16.23,2.11,23.86,4.66,21.9,7.3,43.57,15.31,65.29,23.12,21.15,7.61,42.24,15.35,63.39,22.94a77.85,77.85,0,0,0,9.08,2.3c29,6.65,47.63-.68,64.24-25.57,1.55-2.32,1.57-5.67,2.57-9.59-16.32-2.82-31.64-5.52-47-8.12-38.18-6.49-76.47-12.42-113.89-22.7-21.72-6-43.1-12.93-63.24-23.16-13.44-6.82-26.18-14.74-35.93-26.56-7.29-8.83-12.7-18.4-10.94-30.46,7.3-3.78,14.14-1.9,20.69-.42,21.32,4.82,42.61,9.76,63.78,15.18,23.62,6,47.21,12.11,71.49,14.81a169.73,169.73,0,0,0,26.15,1.37c21.23-1,42.42-2.58,63.61-4.1,2.3-.16,4.53-1.35,7.06-2.14-.32-2.54-.13-4.46-.81-6-10.4-23.62-23.61-45.43-41.54-64.17-30.74-32.14-68.21-42.35-111.25-33.84-19.1,3.78-37.17,10.75-54.71,19.11-5.6,2.67-11.18,5.38-17,8.18-1.66-1.18-3.6-1.9-4.49-3.29-15.89-24.79-30-50.55-39.09-78.65a196.45,196.45,0,0,1-7.88-34.61c-3.89-29.52,8.06-53,34.63-66.7a144.83,144.83,0,0,1,36.86-13.21c38.33-7.8,76.88-8.82,115.27.6,15.77,3.86,31.56,7.66,47.44,11,7.83,1.66,15.88,2.31,25.07,3.6.75-4.58,1.55-8,1.85-11.51,1-11.32,7.48-18.64,17.63-22,8.2-2.75,17-5,25.52-5.24,19.34-.43,38.85-.78,58,1.28,40.37,4.34,80.53,10.52,120.83,15.43,27.29,3.32,54.67,5.85,82,8.56,18.85,1.87,37.45-.28,55.84-4.36,7.3-1.62,14.52-3.15,23.48-2.2-1.49,4.3-2,7.92-3.83,10.77a242.59,242.59,0,0,1-39.21,47.64c-4.92,4.66-9.58,9.6-14.44,14.5,8.68,15,17,28.92,24.87,43.11,24.89,45,35.53,93.16,30.58,144.43a438.46,438.46,0,0,1-16.29,82.63q-14.13,47.57-30.11,94.59c-14.61,43.22-28.85,86.53-37.35,131.44-2.78,14.7-4.58,29.63-6,44.53-2.93,31.78,2.9,62.27,15.25,91.52,4.61,10.92,9.59,21.74,15.2,32.16,14.82,27.5,30,54.78,45.19,82.1,2.09,3.77,4.6,7.31,6.89,10.91,33.65,4,66.63,1.38,99.41-2.89,72.16-9.39,139.6-32.94,202.33-69.86,33-19.45,63.52-42.13,89.62-70.4,34.83-37.74,57.51-81.5,64.7-132.65,5.11-36.38,2.2-72.24-7.94-107.61-10-35.07-25.13-67.9-43.22-99.43-11.8-20.57-24.43-40.65-39.18-60-15.63-.27-31.07,1.59-46.52,3.2-35.71,3.72-71.26,2.89-106.12-6.12a174.41,174.41,0,0,1-36.55-14.12c-24.19-12.61-38.66-33.06-43.34-60a107.54,107.54,0,0,1,1.28-44.64c5.68-23.06,19.75-38.44,41.69-47,19.06-7.44,39-8.41,59.05-7.74,32,1.06,63.42,6.71,94.28,14.66,46,11.84,91.59,24.92,137.37,37.42,38.59,10.54,77.39,20.17,117,25.8,14.84,2.1,29.79,3.39,44.69,5.11,2.83.32,5.64.89,11.16,1.78-11.78,9.49-23.28,14.14-34.18,19.72s-22.23,10.9-34.85,17c3.5,3.83,5.67,6.58,8.21,8.93,78.67,72.75,131,161.47,160.35,264.15.51,1.8,1.15,3.58,1.51,5.41,6.94,34.84,23,65.4,41.59,95.42,65.17,105.16,128.21,211.64,194.07,316.36,66.07,105.07,141.71,202.86,232.39,288.27,15.91,15,32.84,28.88,49.32,43.26,3.22,2.81,6.51,5.55,10.59,9-2.44,1.5-3.81,3.09-5.13,3.06-69.65-1.67-138.4-9.12-204.46-33-33.11-12-64.08-28-92.14-49.42-15.49-11.83-29.44-25.1-40.41-41.39-13.6-20.22-28-39.93-41.18-60.41q-69.59-107.91-138.63-216.18c-3.6-5.6-6.34-12-12.91-17.11-11.5,25.47-22.45,49.74-33.7,74.68,2.21,4.28,4.21,8.79,6.75,13,73,120.15,144.66,241.15,219.48,360.15,66.73,106.11,144.09,204.23,236,290.15,13.68,12.8,28.18,24.72,42.3,37.05l13.18,11.51c-2.25,1.4-3.67,3.06-5.1,3.07-57.65.33-114.87-3.68-171.22-16.78-52-12.09-95.78-38.61-133.67-75.63-28.29-27.65-52.76-58.45-74.57-91.33-14.84-22.39-29-45.26-43.24-68q-93.12-148.5-186.18-297c-3.57-5.68-6-12.38-13.21-16.83l-47.65,46.26c-.39,8.15,4.54,12.65,7.72,17.77Q3231.09,2178,3354,2375.22c20.82,33.42,41.53,66.89,62.52,100.2,49.81,79.08,106.33,152.92,173.63,218,23.33,22.56,48.43,43.3,72.69,64.9,3.07,2.73,6,5.64,9.9,9.35-3.33,1.1-5,2.13-6.54,2.07-50-1.69-99.79-4.6-149.23-13.21-58.54-10.19-108.77-35.47-151.17-77a578.68,578.68,0,0,1-72-86.21c-10.25-14.93-20-30.23-29.62-45.58q-144.9-231.06-289.75-462.18c-3.57-5.7-6.15-12.27-12.7-17-20.15,9.87-38.73,22.25-58.31,33.72.72,7.83,5.58,13,9.09,18.58Q2997,2256,3081.58,2391q96.47,154.14,192.91,308.29c50.24,80.29,107.3,155.27,174.94,221.77,23.14,22.76,48.07,43.7,72.2,65.46,4.07,3.66,8.24,7.21,12,10.48-.79,4.36-3.64,4.34-5.94,4.3-60.08-.94-119.83-4.65-178.48-19.32-39.65-9.92-74.4-28.63-105.21-55.18a445.35,445.35,0,0,1-68.61-74.18c-16.25-22.15-32-44.72-46.64-68q-184.23-293.82-367.92-588c-4.26-6.81-8.73-13.48-13.38-20.66a455.87,455.87,0,0,0-66.7,22.94c3.4,6,5.93,11,8.86,15.68q213.21,342,426.54,684c49.17,78.72,105.31,152.11,171.72,217.17,23.63,23.14,49.17,44.34,73.85,66.42,3.61,3.23,7.27,6.4,11.77,10.36-2.68,1.28-4.16,2.6-5.65,2.6-55.77,0-111.1-4.65-165.7-16.42-53.44-11.52-98.85-37.57-137.65-75.8A551.54,551.54,0,0,1,2988.9,3010c-23.13-35.64-45.5-71.77-68-107.81q-200-320.41-400-640.87c-3.91-6.26-7-13.23-12.52-18-10.51-1.19-14.9,4.1-17.84,13-15.61,47.1-19.15,95.06-13.78,144.31,14.13,129.54,64.58,244.25,140.25,348.91,50,69.21,108.57,130.66,172.2,187.41,5.07,4.52,10,9.17,14.55,13.31-.43,5.54-4.23,5.26-6.93,5.7-8,1.28-16.08,3-24.11,2.92-26.85-.38-53.68-1.51-80.52-2.32-3.63-.11-7.26,0-12.25,0,1.65,5,2.49,9.23,4.36,12.92,10.47,20.61,20.53,41.45,31.93,61.54,40.15,70.78,86.79,137.28,135.15,202.61,1.45,2,3.27,3.64,5.47,6.06,8.51-1.37,17.09-2.61,25.61-4.15A936.74,936.74,0,0,1,3056,3220.72a131.52,131.52,0,0,1,29.64,3.24c21.61,5.19,35.15,19.73,38.36,41.36,8.25,55.68-6.81,103.63-50.56,142.53-2.45-2.95-4.68-5-6.09-7.45-11.64-20.56-29.55-33.34-50.93-42.23-19.42-8.07-64.12-16.47-92-12.62-2.37,4.7,1.78,6.74,4.1,9.18q33,34.64,66.15,69.06c14.35,14.94,27.24,31.06,37.35,49.12a183.6,183.6,0,0,1,13.7,30.69c6.65,19.7,5.93,39.78-3,58.5-19,39.61-49.66,65-93.43,73.36-2.26.43-4.66.06-8,.06,0-4.57-.49-8.25.08-11.75,3.75-22.91,0-45-8.5-66.11a356.21,356.21,0,0,0-20.5-42c-12.67-22.34-28.55-42.51-45.24-62-1.87-2.18-4.26-3.9-7.95-7.22-1.92,8.11-1,14.21-.9,20.18.47,27.51.8,55.08-4.35,82.23a314.78,314.78,0,0,1-11.36,43.38c-3.19,9.3-8.3,18.24-14,26.34-13.77,19.63-33,29.83-57.18,30.83-29.25,1.21-55-7.73-77.87-25,.52-2.27.43-3.76,1.12-4.58,22.47-26.76,32.56-58.95,38.73-92.3,5.1-27.6,8.51-55.58,11.07-83.54,2.23-24.24,2.31-48.68,3.11-73,.19-5.48-.57-11-.95-17.54-7.68-1-14.38-2.3-21.12-2.69-34.34-2-68.72-3.26-102.9,1.92a188,188,0,0,0-29.07,7c-18.32,5.89-33.89,15.85-44.16,32.79-.94,1.55-2.44,2.75-4.44,4.94a106.76,106.76,0,0,1-8.58-6.39c-17.65-16-34-33.16-47.34-53-9.49-14.15-16.63-29.26-19.36-46.31a62.88,62.88,0,0,1,3.11-31.38c4.66-13.08,14.29-21.84,26.95-27.12a97.3,97.3,0,0,1,42.12-7.68c21.82,1,43.61,3,65.36,5.09,23,2.25,45.93,5.22,68.91,7.73,3.64.4,7.37.05,12.42.05-1.1-3.87-1.37-7-2.78-9.42-9.33-16.24-18.38-32.69-28.5-48.44-31.44-49-66.78-95.11-102.85-140.7-1.9-2.41-4.17-4.52-7.35-7.91-2.39,3.58-4.74,6.21-6.1,9.29-7.07,16.06-15.19,31.51-25.53,45.73-6.22,8.56-13,16.66-20.68,23-5.5-.91-4.66-4.64-5-7.4-4.78-37.84-11.12-75.37-21.85-112.06-14.68-50.17-35.79-97.25-66.58-139.71-4.35-6-9.1-11.71-13.16-16.91-5.77.18-5.66,3.77-6.08,6.64-14.63,100.41-21.22,201.25-17,302.76,1.83,43.72,4,87.4,9.12,130.87,8.41,71.55,21.72,142,48.5,209.3,12.06,30.3,26.86,59.16,46,85.63,30.89,42.67,70.06,74.4,120.62,91a44.27,44.27,0,0,1,5.12,2.19,7,7,0,0,1,1.44,1.33c1.8,4.21-1.47,6.81-3.48,9.7a151.71,151.71,0,0,1-32,34c-19.37,14.88-41.11,23.2-65.72,24.24-15,.64-28.31-3.58-40.62-11.79-13.14-8.76-24-19.92-34-32-16-19.34-29.24-40.52-41.65-62.25-3.08-5.39-6.22-10.76-10.15-17.54-2.5,3.95-4.64,6.68-6.09,9.73-11,23.13-21,46.76-33,69.35-8.73,16.48-19.29,32.14-30.43,47.13-6.2,8.35-14.63,15.45-23.18,21.53-11,7.82-23.38,7.72-35.65,2a67.51,67.51,0,0,1-26-21.08c-9.65-13-19.55-26.14-26.95-40.44-11.47-22.15-21-45.31-31.2-68.09-2.8-6.23-5.28-12.6-7.92-18.93-6.64,2.41-7.85,8.5-10.64,13.13-12.89,21.45-25.93,42.84-42.28,61.83a318.66,318.66,0,0,1-30.32,30.51c-16.39,14.53-36,19.4-57.6,16.2-41.31-6.1-71.12-28.42-91-64.62-.22-.4.16-1.13.51-3.11,2.59-1.09,5.82-2.69,9.2-3.86,47.65-16.47,85.27-46.28,115.22-86.36,24.15-32.34,41.56-68.22,55.24-106,18.58-51.31,30-104.37,37.7-158.29,11.37-80,15.31-160.44,14.76-241.16-.32-48.79-4.32-97.37-9.35-145.87-2.71-26.09-5.94-52.14-9-78.2-.34-3-.9-6-1.31-8.66-5.56-2.13-7.31,2-9.46,4.66a403.07,403.07,0,0,0-60.37,103.16c-18.42,45.46-29.45,92.77-34.44,141.53-.89,8.59-2,17.16-3.12,26.21-20.07-10.43-31.09-26.24-55.13-78.33-3.3,3.05-6.82,5.42-9.2,8.63-19,25.61-38.38,50.92-56.36,77.2-23.63,34.55-46.12,69.89-69,104.94-2.66,4.06-4.75,8.5-6.85,12.31,2.9,5.31,7,3.74,10.4,3.4,24.24-2.47,48.44-5.3,72.69-7.73,19.88-2,39.78-4.2,59.73-5.17a119,119,0,0,1,29.72,2.71c34.86,7.27,53.26,37.11,44.15,71.94a111.41,111.41,0,0,1-11.68,27.42c-15.56,26.7-37,48.48-60,70.12-2.3-2.12-4.38-3.44-5.68-5.3-11.61-16.65-28-26.23-46.82-32.65-16.72-5.71-34-8.33-51.49-9.44-30.58-1.93-61.21-2.34-91.7,1.83-2.37.32-4.68,1-7.81,1.72-.46,3.38-1.23,6.36-1.22,9.35.07,53.82,2.21,107.52,12.79,160.44,3.54,17.69,9,35.06,14.5,52.28,5.39,16.79,14.76,31.6,27,46-3,2.53-5.33,5.52-8.37,6.87-13.67,6-27.35,12.19-41.41,17.23-14.47,5.18-29.69,4.52-44.51,1.67-22.63-4.36-40-16.89-52.22-36.48-10.42-16.73-16.08-35.21-19.15-54.45-5.35-33.51-6.44-67.12-.87-100.77.36-2.21,0-4.53,0-8.83-3.49,2.63-5.63,3.78-7.18,5.47-21.11,23.17-40.29,47.78-55.31,75.4-9.28,17.08-16.59,34.92-20.29,54.18-2.75,14.3-3.77,28.44-.28,42.74.71,2.89.58,6,.85,9.14-5.54,3.33-10.38.79-15,0-38.29-6.83-83.12-48.26-91-86-3.19-15.29-3.32-29.92,3.93-43.78,6.92-13.25,14.16-26.45,22.5-38.84,19.59-29.09,42.67-55.45,66-81.53,8.35-9.31,17-18.38,25.35-27.64,2.4-2.65,4.48-5.59,7.74-9.7-3.64-1.1-5.75-2.12-7.94-2.34a212.73,212.73,0,0,0-67.1,3.58c-32.34,7.07-57.53,23.53-71.78,54.48-.71,1.53-2.27,2.67-4.16,4.81-3.15-2.38-6.26-4.28-8.84-6.74-25.55-24.42-38.49-55-42.66-89.51a226,226,0,0,1-1-39.28c1.21-22.28,13.47-37,34.14-44.82,11.22-4.23,22.93-5.87,34.91-6.08a786.76,786.76,0,0,1,112.25,5.9c27.25,3.43,54.32,8.34,81.48,12.53,1.8.28,3.69,0,7,0,11.05-14.11,21.47-29.59,32.11-44.89q15.52-22.32,30.72-44.86c10.45-15.56,20.81-31.19,30.93-47s20.08-31.66,29.75-47.72q14-23.28,27.25-47c9-16.26,18.39-32.39,25.13-50-7.28-3.53-13.42-1.26-19.46-.81-26.18,2-52.37,4.33-78.63,2-8.63-.77-17.16-2.65-28-4.39,4-4.77,6.31-8.18,9.22-11,27.83-26.95,56.53-53.05,83.51-80.82,52.43-54,98.75-112.84,137.58-177.41,41.86-69.6,73-143.52,89.83-223.21a722.2,722.2,0,0,0,12.68-89c1.42-16.87,1.33-33.75-2.5-50.38q-8-34.66-16.2-69.28c-1.66-7-6.14-10.57-14.46-10.16-5.58,3.39-8,10.11-11.55,15.78Q1912.29,2391,1830,2523,1689,2748.78,1548.11,2974.62c-25.52,40.9-53.12,80.26-86.68,115.1-6.94,7.2-14.12,14.18-21.44,21q-57,53-133.19,68.81c-53.44,11.18-107.54,15.54-162,15.69a20.9,20.9,0,0,1-4.08-.92c-.64-6.2,4.95-7.9,8.38-10.69,61.34-50,115.9-106.52,165-168.45a1361.56,1361.56,0,0,0,88.24-125.79q209.26-335.62,418.5-671.29c3.58-5.74,6.88-11.66,11-18.74-22.69-8.72-44.36-15.71-66.77-23.36-4.62,7.11-8.74,13.27-12.67,19.55Q1568,2490.34,1383.67,2785.19c-24.89,39.82-51.9,78.06-84.32,112.22-4.3,4.53-8.75,8.92-13.16,13.35-40.91,41.14-89.94,66.62-147,77.06-50,9.14-100.36,12.83-151.05,13.49-2.31,0-4.63-.77-6.68-1.13-1.49-4.78,1.92-6.22,4.08-8,102.41-83.42,184.7-184.08,254.4-295.68q179.74-287.78,359.95-575.26c3.28-5.24,6.32-10.62,9.37-15.77-8.55-8.37-43.11-29.53-59-36.24-5.94,3.89-8.46,10.53-12,16.25q-135.92,217.89-271.76,435.84c-15.55,24.91-31.35,49.69-47.92,73.92A521.58,521.58,0,0,1,1150,2677c-6.75,6.49-13.72,12.78-20.77,18.94-32.7,28.57-70.43,47-112.81,56.31-34.26,7.56-68.93,12-103.84,14.6-19.31,1.45-38.7,1.89-58.06,2.72-3.58.15-7.16,0-13.29,0,2.72-3.92,3.66-6,5.25-7.43,10.85-9.43,22-18.53,32.75-28.05,86.87-76.77,158.89-166,220.21-264q104.74-167.49,209-335.27,47.6-76.38,95.09-152.79C1406.78,1976.84,1409.82,1971.48,1412.7,1966.62Zm518.81-176.33c-7.78-.52-13.89-1.12-20-1.29a537,537,0,0,1-186.15-38.47c-81.75-32.82-153.89-80-212.68-146.26-45.43-51.17-74.71-110.29-85.62-178.21-8.71-54.23-4.73-107,16.21-158.18a445.53,445.53,0,0,1,32.06-63.46c15-24.58,32-47.7,50.17-70,3.38-4.15,8.31-7.6,8.57-15.9-8.42-.86-16-5.36-25-4.26-19.27,15.38-36.44,32.61-52.59,50.87-82.74,93.61-111.66,202.87-93.72,325.36,11.38,77.72,42.21,147.46,90.7,209q110.94,140.8,278.49,205.6c60.51,23.45,123.46,35.53,188.34,37.35,4.79.13,9.61-.69,14.49-1.07-1.59-25.56-3.87-49.8-4.39-74.08C1929.84,1842.39,1931,1817.44,1931.51,1790.29Zm653.92,150.26c1.07.53,2.12,1.49,3.21,1.53,5,.17,10,.35,15,.06,42.54-2.52,84.48-8.94,125.47-20.71,131.59-37.75,239-112.37,325.23-217.4,66.09-80.48,99.61-173.65,100.39-278.26.39-50.67-8.34-99.52-27.87-146.25-27-64.7-69.27-118.25-121.91-164-.88-.76-2.26-1-4.07-1.67-7.28,1.05-15,2.49-23.51,6.52,2.19,3.54,3.53,6.18,5.31,8.49,6.49,8.41,13.27,16.6,19.66,25.08,26.82,35.53,50.56,72.9,67.57,114.22,10.27,25,18.13,50.67,20.34,77.65a333.59,333.59,0,0,1-9.67,111.51c-16.22,62.74-48.7,116.12-94.09,161.68-67,67.2-146.33,114.4-236.53,143.39a570.16,570.16,0,0,1-147.14,26.42c-4.84.24-9.65,1.11-14.84,1.73-.9,39.61-1.74,78.21-2.69,116.8-.24,10-.89,20-1.2,29.94C2584,1938.37,2585,1939.46,2585.43,1940.55ZM1649.59,3328c-4.58,5.2-7.67,8.94-11,12.45-21.94,23.1-44.46,45.68-65.75,69.37-18.77,20.89-36.6,42.66-54,64.69-8.08,10.22-14.48,21.82-21.21,33.06-5.66,9.47-6.66,20-5.34,30.82,2.23,18.3,10.92,33.06,24.73,44.82,6.46,5.5,12.86,11.61,22.33,13.08.84-2.47,1.79-4.07,1.89-5.73,2.81-45.93,21.13-85.63,48.78-121.57,23.4-30.44,51.44-56.13,81.89-79.29,2.12-1.61,5.16-2,9.54-3.63,0,8.66-.07,15.47,0,22.29.48,36.23.8,72.46,1.6,108.68a184.26,184.26,0,0,0,11.6,60.44c3.72,10.05,8.69,19.4,16,27.29,16.63,17.9,42.21,21.64,62.59,9.29-.11-1.19.18-2.62-.38-3.52-14.45-23.27-21.11-49.18-25.85-75.76-11.7-65.46-13.61-131.6-13.83-197.87,0-2.36.83-4.74,1.34-7.46,2.64-.95,4.87-2.24,7.22-2.51,43.49-5.1,87.06-8.62,130.85-4.34,23.71,2.32,47.1,6.49,68.75,17,9.43,4.56,18.21,10.47,27.93,16.14,16-13.21,29.9-28.14,39.75-46.54a45.62,45.62,0,0,0,5.62-23.41c-.5-14.52-6.47-23.83-20.34-28.07-7.6-2.32-15.91-3.07-23.93-3.2-31.29-.53-62.33,3.35-93.45,6.06-28.61,2.48-57.28,4.35-85.94,6.29-3.39.23-6.86-.82-10.86-1.35.8-8.84,4.36-15.49,7.31-22.28,14-32.2,31.93-62.19,51.24-91.4,32.77-49.57,68.86-96.7,107.33-141.92,9.21-10.82,10.54-20.28,4.21-32-1.18-2.2-2.1-4.53-3.25-6.75-14.12-27.19-36.07-36.49-65.62-28.29-7.17,2-11.76,5.4-14.92,12.52-14,31.45-31.63,60.94-49.59,90.24-44.72,73-92.84,143.76-141.26,214.32-2.4,3.51-5.41,6.62-8.45,10.29-12.73-1.93-25-3.74-37.32-5.69A1266.78,1266.78,0,0,0,1462,3249a129.63,129.63,0,0,0-22.36,1.4c-10.88,1.63-17.8,8.61-21.51,18.68a47.73,47.73,0,0,0-3.1,12.71c-1.82,24.8,1.84,48.61,14.42,70.46,1.68,2.92,4.61,5.12,7.4,8.11,22.65-23.64,50.49-33.43,80.47-39.37C1561.13,3312.33,1604.22,3315,1649.59,3328Zm896.12,28.49a110,110,0,0,1,48.9-25.84,312.64,312.64,0,0,1,42.33-7.69c43.09-4.37,86.1-2.21,128.94,3.8,4.18.59,8.2,2.25,12.69,3.53.27,5.59.71,10.54.71,15.48,0,47.5-1.72,94.91-7.14,142.15-5,43.53-11.23,86.71-33.74,125.19,1.26,1.45,1.88,2.78,2.9,3.26,20.54,9.56,52.13,6.39,69-20.48,6.74-10.72,10.81-22.43,13.79-34.63,4.92-20.2,5.53-40.82,5.9-61.42.62-34.35.79-68.71,1.22-103.07.05-3.43.66-6.86,1.17-11.92,3.73,2.08,6,3,7.77,4.38,27.78,21.44,53.63,44.92,75.89,72.16,29.83,36.49,51,76.89,56.24,124.53.36,3.36,1.75,6.61,3.08,11.44,12.39-7.09,22-14.81,29.66-24.73,15.37-19.86,24-45.42,5.15-72.58-10.33-14.86-20.59-29.83-31.9-43.94-32.86-41-69.24-78.83-105.63-116.64-3.29-3.42-6-7.36-9.38-11.48,52.21-16.13,91.42-16.08,147.27-3.26,22.85,5.24,43.62,15.05,60.78,31.59,1.57,1.51,4,2.18,6.53,3.53,16.64-25.34,22-52.44,19.5-81.17-1.52-17.53-11.43-26.91-28.77-29.23a63.62,63.62,0,0,0-11.21-.52c-26.21,1.15-52.47,1.69-78.6,3.82q-62.57,5.09-124.4,16.33c-3.52.64-7.26.09-10.8.09-3.41-4.46-6.56-8.33-9.44-12.39-25.67-36.16-51.9-71.94-76.78-108.64-42.07-62-83.22-124.71-112.28-194.31-1.82-4.36-4.44-7.27-8.83-8.93-35.13-13.2-63.33,0-75.83,35.64-.82,2.35-1.63,4.71-2.35,7.1a15.52,15.52,0,0,0,3.24,15.66c8.46,10,16.58,20.33,24.72,30.61,37.27,47,73.28,95,104.75,146.11,13.43,21.83,26,44.12,36,67.77,2.37,5.62,6,11,4.68,18.94-6.09,0-12.27.38-18.39-.06-26.78-1.94-53.54-4.17-80.32-6.18q-42-3.15-84.08-6a137.78,137.78,0,0,0-18.73.23c-26.16,1.86-32.94,21.48-30.4,38.44a63.35,63.35,0,0,0,10.29,25.92A149.54,149.54,0,0,0,2545.71,3356.49ZM2248.52,1155.68c2.74-4.25,4.82-6.47,5.76-9.09,6.69-18.79,13.11-37.68,19.7-56.5,8.44-24.12,9.62-48.84,6-73.9-6.8-47.32-29.53-84.21-71.57-108.26A204.57,204.57,0,0,0,2160,888.35c-47-12.73-94.9-14-143-10.28-14.29,1.11-28.43,4.31-41.32,11.17-16,8.53-22.36,20.69-19.72,38.57,4,27,15.87,50.79,30.39,73.73,3.29,0,5.8.36,8.15-.08A119.79,119.79,0,0,0,2009,998c13.67-4.35,27.19-9.13,40.88-13.4,15.67-4.89,31.46-6.54,48-3.77,30.16,5.07,55.07,19.58,76.39,40.66,32.56,32.21,55.66,70.24,68.52,114.34C2244.42,1141.66,2246.14,1147.51,2248.52,1155.68Zm63.7-145.21c17.65,2.92,28.89,2.35,43.72-1.26,39.22-9.54,47-39.81,45.7-65.62a25.27,25.27,0,0,0-9.87-19.44c-6.26-4.85-12.73-9.51-21.24-8.84-4.21,24.75-18.09,42.36-40.77,51.61-9.65-22.2-11.58-44,2.41-66.28-5.69-2.45-10-4.9-14.67-6.21-19.4-5.48-33.55,3.38-37.17,23-1.63,8.85-1.28,17.09,4.62,24.85,11.91,15.68,18.33,33.92,23.05,52.84C2309.2,1000,2310.63,1004.73,2312.22,1010.47Z"/><path d="M3530,3715.65c16.9,18.29,34.51,35.93,51.74,53.91,16.86,17.59,33.84,35.07,50.76,52.6q26,27,52.05,54c16.77,17.5,34,34.62,51,53.2-12.26,13.82-24.43,25.92-37.94,36.47-15.75-12.9-252.43-258.77-260.79-271,13.28-12.92,26.66-26,40.12-39,2.65-2.55,5.64-4.74,9-7.54,110.51,33.64,220.45,68.3,332.2,102.26-.73-7.22-5.14-9.9-8.27-13.15q-70.86-73.57-141.87-147-24.75-25.62-49.41-51.31c-2.93-3.06-5.47-6.48-8.16-9.71,1.41-2.41,2-4.25,3.28-5.47,10.64-10.52,21.4-20.92,32.85-32.08,3.31,2.7,6.31,4.67,8.74,7.19q123.07,127.38,246,254.86c2.13,2.21,4,4.66,6.88,8-15.63,18.94-34.53,34-51.36,51.73l-324.33-100.76Z"/><path d="M4097.35,2058.61c-6-22.78-9.48-44.81-13.85-67.7,21.82-19,44-37.14,65.92-55.59q33.69-28.39,67.52-56.6,33-27.69,66.08-55.4c21.87-18.36,43.72-36.76,65.82-55.34-4.68-5.24-9.13-2.36-12.86-1.66-28.23,5.29-56.39,11-84.57,16.49q-96.49,19-193,37.94a54.13,54.13,0,0,1-6.47.41c-7.27-15.32-7.54-32.33-11.64-49.69,4-1.67,7.66-4,11.63-4.77Q4187,1740,4322.12,1713.57c22.67-4.45,45.32-9,68-13.38,6-1.15,12.08-1.69,19-2.63,6.38,24,10.48,47.18,14.27,71.47-28.7,24.44-57.57,48.21-86.24,72.22q-43.83,36.7-87.76,73.29c-28.69,24-57.35,48-85.63,71.63,1.41,5.16,4.13,3.24,6.15,2.85q133.28-26.1,266.53-52.28c5.47-1.07,11-1.86,17.47-2.94,1.65,3.57,3.8,6.64,4.5,10,2.79,13.38,5.12,26.85,7.76,41-4.34,1.32-7.75,2.68-11.29,3.39C4336.18,2011.94,4217.39,2035.17,4097.35,2058.61Z"/><path d="M719.49,3864.21c-14.63-16.16-28-30.9-41.36-45.72-2.45-2.74-4.56-5.78-7.31-9.29,36.71-106.82,74.48-213.13,111-319.77-6.07-3-7.63,1.9-10,4q-97.61,87.73-195,175.76c-5.51,5-11.09,9.85-17.39,15.45-14-11.12-23.88-24.68-34.76-36.63-.09-7.48,5.7-10,9.63-13.58q56.91-51.69,114.08-103.08,68.89-62.19,137.8-124.37c4.63-4.17,9.36-8.22,14.78-13,10.26,6.65,16.76,16.7,24.75,25.13,7.69,8.11,14.86,16.7,22.55,25.41L734.44,3773.9c7.09-.63,9.89-4.75,13.18-7.71q71.76-64.61,143.4-129.35,28.54-25.76,57.07-51.51c4.58-4.13,9.38-8,14.71-12.54,13.47,11.29,23.51,24.72,35,37.54-2.18,7.32-8.48,10.81-13.34,15.22q-83.36,75.55-167,150.84-41.06,37.07-82.11,74.13C730.82,3854.66,726,3858.59,719.49,3864.21Z"/><path d="M573.1,1536.87l-21.94,64.38c-38.07,8.29-76.31,13.85-114.26,20.86-37.45,6.92-75,13.29-112.53,19.89q-57.15,10.05-114.17,20c-.5,6.14,4.06,6,7.32,7.17q92.14,31.57,184.31,63.07,38.12,13,76.2,26.1c5.24,1.8,10.37,3.94,16.34,6.23-3.91,17.56-9.87,33.62-17.36,50.62q-177.35-60.17-352.58-120.42c.45-14.26,6.35-33.55,21-69.35,13.34-5.52,28.43-6.32,43-8.9,94.08-16.65,188.24-32.89,282.36-49.31,2.32-.4,4.58-1.19,7-1.84-.42-6.82-6.07-6.3-9.56-7.52-38.34-13.32-76.78-26.34-115.19-39.44q-67.38-23-134.74-46c-5.82-2-11.48-4.46-17.65-6.89.39-9.6,4.66-17.36,7.13-25.53,2.32-7.69,5.31-15.18,7.84-22.28,6.81-2.78,11.75.46,16.91,2.21q119.67,40.83,239.34,81.66,45.21,15.42,90.37,31C565.14,1533.61,567.94,1534.84,573.1,1536.87Z"/><path d="M1802.09,4440.48c-5.42-1-9.09-1.53-12.63-2.48-29.51-7.95-59.11-15.6-88.44-24.15a323.93,323.93,0,0,1-42.08-15.42,148,148,0,0,1-28.72-17.36c-29.46-22.47-38.59-52.42-30.41-88a123.17,123.17,0,0,1,5.5-17.85c10.42-26.21,29.21-43.05,56.9-49.28,9.08-2.05,18.38-3.12,27.81-4.68,1.34-3.88-2.19-4.61-4.55-6.12-5.77-3.69-11.93-6.9-17.26-11.14-25.58-20.32-36.14-47.05-32.28-79.31a111.3,111.3,0,0,1,11.65-37.36c12.81-25.08,33.39-39.67,60.94-44.85,22.49-4.23,44.93-2.72,66.91,2.31,29.77,6.82,59.21,15,88.77,22.77,11.39,3,22.7,6.24,35.11,9.67-.91,5.66-1.24,10.51-2.48,15.11q-45,167.09-90.26,334.11C1805.45,4430.56,1804,4434.62,1802.09,4440.48Zm1.58-212.15c6-22.25,11.62-42.05,16.75-62,5.08-19.71,12.06-39,14.75-60-26.62-8.18-52.19-16.32-79.12-18.07-8.55-.55-17.44.86-25.9,2.68-15,3.23-25.79,12.52-32.1,26.37-14,30.75-11.22,63.29,24.3,83.84.54.32,1,.69,1.59,1C1748.28,4215.51,1775,4221.44,1803.67,4228.33Zm-12.1,44.18c-27.51-8.37-53-16.39-80.07-17.64a91.4,91.4,0,0,0-9.36.22c-21.69,1.11-36.37,12.21-44,32.21a91.65,91.65,0,0,0-5.38,23.58c-1.51,16,4.7,29.29,16.78,39.81,10.09,8.79,21.9,14.36,34.64,18,16.82,4.76,33.7,9.28,50.59,13.78,1.69.45,3.6.06,6.66.06C1772.37,4346.94,1781.49,4310.79,1791.57,4272.51Z"/><path d="M665.4,3189.42c-114,54-226.21,106.9-339.29,160-2.56-4.05-4.8-6.93-6.32-10.15-14.68-31.05-29.38-62.08-43.77-93.26-15.14-32.82-23-67.2-21.51-103.54,2.06-50.07,21.12-92.33,59.47-124.69s83.3-49.86,133.6-52.35c45.64-2.27,84.33,14.08,117.11,45.31,21.07,20.06,36.92,43.91,49.93,69.74,5.34,10.59,10.22,21.41,15.28,32.14q14.4,30.48,28.73,61C660.72,3178.1,662.52,3182.68,665.4,3189.42ZM599,3159.08c-13.85-27.82-24.57-56.51-41.75-82-9.13-13.55-19.89-25.62-33-35.45-20.87-15.57-44.44-22.68-70.25-20.86-38.45,2.72-73,16.6-102.86,40.68-33.21,26.75-49.4,61.88-47.69,104.88.76,19,5.68,37,13.42,54.15,7.43,16.5,15.3,32.79,23.12,49.11,1.54,3.23,3.71,6.16,6.22,10.26,82.12-38.25,163.12-76.85,244.28-115.08C593.14,3163.49,595.48,3161.43,599,3159.08Z"/><path d="M4482.31,2339.73c0,6.13.31,9.82-.05,13.43-3.83,38.49-7,77.07-11.93,115.43a199.26,199.26,0,0,1-31.88,85.22c-32.45,49.07-77.9,76.16-137,79.49a233.14,233.14,0,0,1-92.08-13.17c-62.79-22.4-98.72-67.47-109.9-132.67a262,262,0,0,1-1.62-74.62c3.56-31,6-62.11,9-93.16.47-4.84,1.49-9.63,2.12-13.58,1.67-1,2.17-1.36,2.72-1.62a3.7,3.7,0,0,1,1.72-.65C4235.8,2315.71,4358.09,2327.62,4482.31,2339.73Zm-53.78,49.46c-89.41-8.87-178.21-17.68-267-26.41-3-.29-6.06.3-9.52.5-1,4.84-2.3,9-2.75,13.25-1.7,16.15-3.44,32.31-4.6,48.51-1.4,19.39-.94,38.74,3.62,57.79,7.34,30.6,23.13,55.65,51.1,70.81,42.33,23,87.54,29.72,134.13,16.17,48.24-14,76.33-48.33,87.53-96.22,6.11-26.12,7.78-53.07,8.47-80A35.78,35.78,0,0,0,4428.53,2389.19Z"/><path d="M2079.36,251.29c22.12,8.37,32.47,23.94,42.38,39.89q37.07,59.65,74,119.43c2.82,4.58,7.59,8.62,6,15.68-18.88,2.6-37.85,5.77-57.7,5.82-3.43-5.5-6.8-10.67-9.92-16-19.55-33.4-39-66.9-58.63-100.23a183.59,183.59,0,0,0-14.82-21.54,40.44,40.44,0,0,0-34.64-15.53c-16.77.83-33.62,1.9-51,5.83-.16,3.92-.78,7.51-.39,11,5.28,47.14,10.74,94.27,16,141.42.41,3.61,0,7.31,0,11.87-8.34,3.46-17,3.75-25.57,4.57-8,.76-16,1.54-25.22,2.43-1.33-5.11-3.13-9.67-3.66-14.37-5.54-49-10.8-98-16.31-147-5.57-49.63-11.4-99.23-17-148.85-2.3-20.38-4.26-40.8-6.5-62.31,5.73-1.47,10.29-3.23,15-3.75,34.12-3.81,68.26-7.54,102.43-11a204.56,204.56,0,0,1,56,2.52c39.09,6.9,63.31,30.27,72.1,69.1,3.21,14.17,4.78,28.36,1.64,42.68-5.69,26-20.87,44.92-43.77,57.9C2094.36,243.89,2088.74,246.5,2079.36,251.29Zm-111.25-16.56c3.65.36,6.1,1,8.46.76,14.24-1.53,28.58-2.59,42.64-5.14,11-2,22-4.85,32.13-9.33a72.19,72.19,0,0,0,22.76-15.81c25.7-27.06,14.76-71.54-20.28-84.2-10-3.62-20.54-5.83-31.2-4.82-21,2-42,4.62-63,7.1-1,.12-1.88,1.42-3.78,3C1959.14,161.94,1963.15,198.23,1968.11,234.73Z"/><path d="M1647.33,534.92c-7.91-18.91-15.16-36.11-22.31-53.36s-14-34.77-21.43-51.95-12.85-35-22.32-50.91c-17.56,4.95-150.4,60.07-164.15,68.2,1.61,4.85,3,10.13,5.06,15.13q24.93,60.63,50.06,121.19c2.59,6.28,4.9,12.67,7.72,20-15.47,9.17-31.56,14.94-47.48,20.58-8.17-13-133.79-315.06-143.68-344.84,8.36-7.92,25.63-15.68,47.78-21.23,2.06,4,4.55,8.17,6.39,12.59,15.33,36.9,30.51,73.87,45.81,110.78,2.6,6.27,5.58,12.38,8.9,19.72,52.37-20.76,103.39-42.5,154.67-63.59,3.37-1.38,6.44-3.48,10.61-5.78-19.66-47.87-39-95.1-58.84-143.3,15.56-9.14,31.53-15.21,47.28-20.21,2,1.47,3.48,2,3.88,3q69.85,168.74,139.49,337.58c.67,1.61.36,3.63.58,6.26C1680.68,522.72,1665.09,528.63,1647.33,534.92Z"/><path d="M3406.52,822.13l-42.81-28.75c8.73-17.84,20.55-32.36,30.61-48s20.84-31.14,31.26-46.72,20.76-31.12,31.64-47.45c-2.64-2.49-4.54-4.82-6.93-6.43q-66.81-45-133.74-89.9c-2-1.37-4.34-2.35-7.51-4-11.81,14.68-21.34,30.76-31.85,46.11s-20.94,31.08-31.39,46.63l-31.07,46.16c-13.26-4.5-29.4-14.82-44.39-28,7.5-16,126.29-195,199.79-300.87,2.42-3.49,5.29-6.66,8.49-10.64,15.31,8.4,28.94,17.89,43.23,28.83-2.95,5.14-5.38,10-8.37,14.47q-33.3,49.88-66.76,99.63c-3.39,5.08-6.43,10.39-9.9,16,2.43,2.31,4,4.26,5.92,5.57,46.56,31.36,93.16,62.65,140.78,94.64,3.74-4.49,7.12-7.93,9.78-11.86q33.52-49.71,66.85-99.56c3.81-5.67,7.84-11.2,12.49-17.82,15.31,9.31,30,18.27,43,29.33-8.43,17.69-140.86,217.09-201.36,303.37C3412.2,815.84,3409.63,818.45,3406.52,822.13Z"/><path d="M485.46,952c132,30.38,262.23,60.34,392.4,90.38.93.21,1.59,1.59,2.71,2.79-.5,1.36-.78,3.3-1.79,4.72-9.36,13.25-18.84,26.41-28.71,40.19-3.81-.48-7.46-.61-10.94-1.44-24.9-6-49.75-12.13-74.64-18.11-4.76-1.14-9.63-1.79-15.4-2.83L642.25,1216.11c17,29.59,36.29,57.16,53,85.87-7.59,15.07-21.25,33.76-31.78,43.66a6.31,6.31,0,0,1-1.71-.29,3.55,3.55,0,0,1-1.42-1.2Q558.63,1175.73,457,1007.29c-1.59-2.64-2.87-5.46-4.81-9.17C462.21,982.61,473.07,967.58,485.46,952ZM511.7,1009c1.65,3.84,2.32,6.25,3.61,8.29q47.41,75.07,95,150c1.5,2.37,4,4.14,6.92,7.17,27.3-37.94,53.86-74.82,80.34-111.74,1.37-1.92,2.11-4.28,3.17-6.47C686.76,1050.29,535.68,1012.37,511.7,1009Z"/><path d="M1246.66,4243.13a304,304,0,0,1-43.54-26.09c-.45-7.62,4.37-12.23,7.5-17.43q49.23-81.91,98.72-163.67c9.39-15.54,17.92-31.48,23.68-48.77a114.14,114.14,0,0,0,6.35-36.74,70.45,70.45,0,0,0-19.47-49.31,112.89,112.89,0,0,0-55.6-33.09c-19-4.86-37.17-1.9-54.22,7.82-11.53,6.58-21.85,14.82-29.95,25.21-10.34,13.27-20.47,26.84-29.25,41.16-33,53.79-65.31,108-98.06,161.88-3.14,5.18-5,11.54-12.34,15.38l-43.11-25.94c2.3-4.8,3.82-8.76,6-12.33q53.64-89.1,107.45-178.1c12-19.87,26-38.2,43.53-53.65,21.15-18.67,45.21-30.89,73.68-33.78,19.7-2,38.59,1.33,57,7.85a189.81,189.81,0,0,1,65.42,39.33c37.45,34.32,49.57,76.62,38.7,125.89-5.32,24.08-15.73,46-28.34,67q-29.44,49-59.11,97.83-22.77,37.69-45.54,75.38C1253.32,4233.66,1250.06,4238.1,1246.66,4243.13Z"/><path d="M4017.66,3254.25c-18.89-13.45-91.16-55.83-106-62.18-13.61,21.3-26,43.6-39.1,65.47s-26,43.92-38.9,65.63c-14.14-4.07-28.27-12.2-41.35-23.79l104.94-177.63c2.12-.16,2.72-.27,3.32-.24a4.1,4.1,0,0,1,1.79.37q153.24,90.45,306.45,181c3.23,1.9,6.48,3.77,9.6,5.84,1,.65,1.55,1.9,2.31,2.87-5,13.54-87.86,155.41-104.37,178.78-11.94-2.52-26.51-10.75-40.11-22.92,11.56-22.43,25.47-43.81,38.19-65.85s26.2-43.73,39-66.69c-14.95-12-31.21-19.86-46.52-29.18-14.87-9.05-30-17.66-46-27-3.37,4.72-6.45,8.44-8.89,12.54-18.17,30.6-36.19,61.28-54.32,91.91-3.15,5.31-6.57,10.46-10.17,16.17-8.16-1.4-13.91-6.41-20.25-10s-12.66-7.77-19.91-12.26c2.43-5.15,4.15-9.69,6.57-13.81,18-30.69,36.22-61.28,54.3-91.93C4011.44,3266,4014.25,3260.49,4017.66,3254.25Z"/><path d="M98.4,2739c-12-66.31-22.91-133.94-34.71-202.56,14.55-7,29.85-7.42,46.28-9.29,10.09,51,17.09,101.48,26.59,151.23,12.94,1,86-10.77,106.75-17.06-.25-4.51-.05-9.41-.85-14.14-6.55-38.78-13.3-77.53-19.9-116.3-.41-2.39-.06-4.91-.06-8.75,7-1.55,14.06-3.39,21.25-4.65s14.71-2,22.86-3c1.22,3.43,2.65,6.13,3.14,9,6.54,38.15,12.91,76.33,19.44,114.48.82,4.84,2.3,9.57,3.43,14.13,13.8.58,96.51-12.8,118.28-19,3.67-4.49,1.65-9.57.86-14.26-6.63-39.41-13.5-78.77-20.23-118.15-1.14-6.67-2.86-13.34-1.58-21.07,13.84-4.87,28.16-5.4,41.77-7.93,5.39,4.38,5.26,10.38,6.18,15.71Q453,2575,467.75,2662.74c.81,4.82.81,9.79,1.11,13.73-1.27,1.4-1.65,1.89-2.11,2.3s-.95,1-1.5,1.05Q286.17,2710.48,107.06,2741a20.47,20.47,0,0,1-5.55-.31C101,2740.63,100.47,2740.13,98.4,2739Z"/><path d="M4198.45,1188.23c9.08,12.67,84.18,160.56,95.06,186.73-4.76,5.94-12.24,7.94-18.7,11.4s-13.38,6.43-21.26,10.15c-2.87-4.5-5.8-8.34-7.95-12.57-18.62-36.75-37.06-73.59-55.64-110.36-2.47-4.89-5.37-9.56-7.92-14.07-15.53,4.76-79.65,36.69-96.71,48,5.08,14.52,13.2,27.8,20,41.69s13.94,27.92,20.92,41.89,13.87,27.82,21.06,42.25c-13.14,9.12-26.75,14.85-40.84,21.87-2.78-4.43-5.31-7.83-7.19-11.55q-24.52-48.45-48.89-97c-2.77-5.5-5.87-10.84-9.06-16.71-14.27,3.4-25.58,11.4-37.85,17.09-11.89,5.51-23.47,11.67-35.14,17.65-12.11,6.22-24.61,11.76-37.29,19.6,22.66,46.81,46.29,92,68.7,137.65-5.55,7.34-13.13,9.12-19.51,12.61s-13.36,6.54-19.43,9.46a24.66,24.66,0,0,1-2.57-1.11,4,4,0,0,1-1.38-1.23c-2.15-3.8-4.37-7.56-6.33-11.46-28.6-56.87-57.16-113.76-85.38-170,1.35-7,7-7.87,11.22-10q86.91-44,173.94-87.63,66.08-33.26,132.13-66.55C4187.4,1193.62,4192.44,1191.19,4198.45,1188.23Z"/><path d="M68,2031.69c17.59.78,32.27,5.84,47.1,9,1.12,7.87-3.13,13-5.46,18.58-8.71,21.09-13.15,42.92-12.15,65.79a78.84,78.84,0,0,0,6.94,29c12.73,28.48,50.08,32.2,68.21,16a124.11,124.11,0,0,0,19.69-22.38c8.09-11.83,14.61-24.72,22.24-36.88,8.29-13.22,16.31-26.7,25.8-39,37.2-48.34,91.44-50,134.84-31.87,23,9.6,38.5,27.11,48.68,49.63,8.64,19.12,11.72,39.38,12.73,60.1,1.72,35.05-6.2,68-21.31,100.18-16.56-1-32.27-3.3-48.3-8.84,2.41-6.07,4.45-11.25,6.53-16.41,6.79-16.84,12.15-34.09,14.92-52.1s-.25-34.89-7.62-51.15c-17.88-39.43-67.74-44.52-93.18-14.9-8.09,9.41-15.09,19.87-21.72,30.41-7.63,12.14-13.76,25.26-21.54,37.3s-16,23.95-25.39,34.67c-41.26,47-128.53,35.77-156.51-24.62a138.75,138.75,0,0,1-12.63-48.68C47.31,2100,54.63,2066.07,68,2031.69Z"/><path d="M3251.87,3836.77c8.1,13.81,13.5,28.24,19.19,43.92-3.81,1.41-7,3.22-10.37,3.75-19.19,3.06-37.9,7.79-55.74,15.58-18.24,7.95-33.1,20-43.22,37.3-13.2,22.61-10.52,49,6.56,67.72,10.72,11.77,24.69,16.7,39.94,18.24a197.42,197.42,0,0,0,26.2.55c13.1-.42,26.17-1.84,39.27-2,13.7-.21,27.48-.31,41.09,1,42.92,4.11,68.94,29.43,82.46,68.73,8.77,25.51,5.82,50.48-7.17,74.18a122.09,122.09,0,0,1-31.44,36.79c-27.88,22.25-59.89,35.61-94.55,43-2.34.5-4.82.34-7.88.53-1.93-4.26-3.92-8.05-5.43-12-4-10.43-7.68-20.95-11.64-31.82,7.87-4,15.31-4.62,22.57-5.93,19.33-3.47,37-11.05,53.45-21.63,9.54-6.15,18-13.58,24.21-23.13,16.27-24.88,5.32-57.9-22.86-67.46a84.44,84.44,0,0,0-25.69-4.2c-18.09-.23-36.19,1-54.3,1.2-13.71.13-27.51.3-41.14-.93-36.08-3.25-63.57-20.65-81.89-52.07-7.59-13-13.41-26.79-15.74-41.81-4.8-31,4-58,23.9-81.77,18-21.41,40.23-37.36,65.31-49.27C3207.33,3845.52,3229,3839.94,3251.87,3836.77Z"/><path d="M2984.25,509.66c-2.32,17.1-6.81,32.37-11.53,47.83-11.35,2.54-22,1.72-32.4.2-32.34-4.74-63.45-13.72-92.6-28.85-26.45-13.73-49.37-31.79-67.11-55.9-26.72-36.32-37.08-77.25-33.31-121.93,2.82-33.44,11.87-65.13,28.4-94.38,27-47.73,67-78.28,120.92-89.94a194,194,0,0,1,69-2.14c36.41,5.21,70.25,17.24,100.8,38,4.13,2.8,8,5.94,11.88,9.13,1.39,1.15,2.26,2.91,4,5.21l-18.93,45.75c-5-4-8.77-6.94-12.37-10.1q-45.63-40-106.3-39.87c-37.65.08-69.89,13.59-95.39,40.93-36.29,38.94-51.57,85.8-42.65,138.2,9,53.07,41.61,88.32,92,106.7a190.43,190.43,0,0,0,68.08,11.2C2972.2,509.6,2977.72,509.66,2984.25,509.66Z"/><path d="M1202.73,692c12.08,13.41,22.45,24.94,33.31,37-1.59,3.65-2.44,7.38-4.54,10.15-40.24,53-90.27,91.1-157.74,102a156.13,156.13,0,0,1-94.9-14c-58-28.21-97-73.69-116-135.31-13-42.29-9.27-84.22,9.69-124.09,26.46-55.62,69.79-93.34,127-115.46,4-1.53,8.28-2.13,12.48-3.18,6.75,5.82,10.3,13.21,14.85,19.79s8.75,13.39,13.95,21.4c-5.56,1.88-9.43,3.5-13.46,4.51-32.56,8.12-59.91,25-81.47,50.44C910.1,587.58,901.78,635.07,921.84,687c10.82,28,28.6,51.16,52,69.8,50.74,40.41,118,41.67,170.26,3.28a197.37,197.37,0,0,0,49.51-53.17C1196.28,702.7,1198.81,698.43,1202.73,692Z"/><path d="M3889.84,835.66c-25.78-30.11-50.13-58.55-75-87.59,10-12.68,22.47-21.62,35.63-31.76,62.21,72.34,124,144.24,186.32,216.69-3.9,7.65-10.54,11.45-15.88,16.33-5.51,5-11.35,9.71-17.84,15.2-3.54-3.17-7-5.67-9.71-8.8-18.43-21.23-36.68-42.62-55-63.9-4-4.67-8.32-9.12-13.23-14.48l-248.26,213.59c-13.63-12.31-24.21-25.89-35.46-40.45,16.41-15.38,33.31-29.14,49.73-43.43s33.11-28.57,49.68-42.83l48.3-41.56q24.87-21.39,49.72-42.79C3855.28,865.64,3871.73,851.35,3889.84,835.66Z"/><path d="M2867.17,4354,2978,4323.84c6.74,14.39,9.67,28.78,13.12,44.21-4.43,1.76-8.2,3.68-12.19,4.79q-125.35,34.65-250.78,69.08c-4.08,1.12-8.36,1.52-13.27,2.39-5.8-14.42-10.06-28.38-11.78-44.25,35.91-11.9,72.45-19.83,109.21-31.22-.54-4.45-.51-8.68-1.59-12.62q-39-142.61-78.11-285.15c-1.63-6-3-12-4.68-18.64,15.85-7.63,32.49-10,47.46-14.52,6.5,3.27,6.56,8.63,7.85,13.33q31.53,114.57,63.05,229.14c5.13,18.65,10.16,37.32,15.34,55.95C2863.11,4341.67,2864.94,4346.91,2867.17,4354Z"/><path d="M2178,4307.23c-1.39-46.71,38.72-81.55,80.06-81.86,39.49-.29,81,30.82,81.77,80.47.66,44.77-35.7,81.22-80.38,81.83C2215.1,4388.27,2177.15,4351.34,2178,4307.23Z"/><path d="M4369.61,2960.87c-5,17.13-10.08,33-16.67,48.15-18.64-3.52-264.54-86.09-345-115.73-3.39-1.25-6.57-3.05-10.34-4.83.84-3.7,1.27-6.75,2.24-9.62,4.37-12.93,8.9-25.81,12.93-37.4a20.15,20.15,0,0,1,3.12-1.76,3.46,3.46,0,0,1,1.86,0q172.76,58.76,345.5,117.58C4365,2957.8,4366.46,2959,4369.61,2960.87Z"/><path d="M2475.16,441.91c-18.65.87-34.45-2.79-51.5-4.23-.48-3.84-1.53-7.4-1.25-10.85q2.31-28.95,5.18-57.86,9-91.38,18.07-182.74,5.72-57.81,11.52-115.61c.18-1.78,1.05-3.48,1.9-6.22,17.36-2.59,34.07,2.08,50.38,3.61,1,2.52,1.88,3.69,1.77,4.75C2499.32,195.16,2487.33,317.56,2475.16,441.91Z"/><path class="cls-1" d="M1931.51,1790.29c-.48,27.15-1.67,52.1-1.14,77,.52,24.28,2.8,48.52,4.39,74.08-4.88.38-9.7,1.2-14.49,1.07-64.88-1.82-127.83-13.9-188.34-37.35q-167.17-64.78-278.49-205.6c-48.49-61.55-79.32-131.29-90.7-209-17.94-122.49,11-231.75,93.72-325.36,16.15-18.26,33.32-35.49,52.59-50.87,9-1.1,16.57,3.4,25,4.26-.26,8.3-5.19,11.75-8.57,15.9-18.17,22.31-35.19,45.43-50.17,70a445.53,445.53,0,0,0-32.06,63.46c-20.94,51.18-24.92,103.95-16.21,158.18,10.91,67.92,40.19,127,85.62,178.21,58.79,66.21,130.93,113.44,212.68,146.26A537,537,0,0,0,1911.48,1789C1917.62,1789.17,1923.73,1789.77,1931.51,1790.29Z"/><path class="cls-1" d="M2585.43,1940.55c-.48-1.09-1.41-2.18-1.37-3.25.31-10,1-20,1.2-29.94.95-38.59,1.79-77.19,2.69-116.8,5.19-.62,10-1.49,14.84-1.73a570.16,570.16,0,0,0,147.14-26.42c90.2-29,169.57-76.19,236.53-143.39,45.39-45.56,77.87-98.94,94.09-161.68a333.59,333.59,0,0,0,9.67-111.51c-2.21-27-10.07-52.69-20.34-77.65-17-41.32-40.75-78.69-67.57-114.22-6.39-8.48-13.17-16.67-19.66-25.08-1.78-2.31-3.12-5-5.31-8.49,8.49-4,16.23-5.47,23.51-6.52,1.81.72,3.19.91,4.07,1.67,52.64,45.73,94.87,99.28,121.91,164,19.53,46.73,28.26,95.58,27.87,146.25-.78,104.61-34.3,197.78-100.39,278.26-86.26,105-193.64,179.65-325.23,217.4-41,11.77-82.93,18.19-125.47,20.71-5,.29-10,.11-15-.06C2587.55,1942,2586.5,1941.08,2585.43,1940.55Z"/><path class="cls-1" d="M1649.59,3328c-45.37-13-88.46-15.67-132.27-7-30,5.94-57.82,15.73-80.47,39.37-2.79-3-5.72-5.19-7.4-8.11-12.58-21.85-16.24-45.66-14.42-70.46a47.73,47.73,0,0,1,3.1-12.71c3.71-10.07,10.63-17.05,21.51-18.68A129.63,129.63,0,0,1,1462,3249a1266.78,1266.78,0,0,1,167.8,15.55c12.28,2,24.59,3.76,37.32,5.69,3-3.67,6.05-6.78,8.45-10.29,48.42-70.56,96.54-141.33,141.26-214.32,18-29.3,35.62-58.79,49.59-90.24,3.16-7.12,7.75-10.53,14.92-12.52,29.55-8.2,51.5,1.1,65.62,28.29,1.15,2.22,2.07,4.55,3.25,6.75,6.33,11.7,5,21.16-4.21,32-38.47,45.22-74.56,92.35-107.33,141.92-19.31,29.21-37.27,59.2-51.24,91.4-3,6.79-6.51,13.44-7.31,22.28,4,.53,7.47,1.58,10.86,1.35,28.66-1.94,57.33-3.81,85.94-6.29,31.12-2.71,62.16-6.59,93.45-6.06,8,.13,16.33.88,23.93,3.2,13.87,4.24,19.84,13.55,20.34,28.07a45.62,45.62,0,0,1-5.62,23.41c-9.85,18.4-23.72,33.33-39.75,46.54-9.72-5.67-18.5-11.58-27.93-16.14-21.65-10.49-45-14.66-68.75-17-43.79-4.28-87.36-.76-130.85,4.34-2.35.27-4.58,1.56-7.22,2.51-.51,2.72-1.35,5.1-1.34,7.46.22,66.27,2.13,132.41,13.83,197.87,4.74,26.58,11.4,52.49,25.85,75.76.56.9.27,2.33.38,3.52-20.38,12.35-46,8.61-62.59-9.29-7.33-7.89-12.3-17.24-16-27.29A184.26,184.26,0,0,1,1683,3517c-.8-36.22-1.12-72.45-1.6-108.68-.09-6.82,0-13.63,0-22.29-4.38,1.62-7.42,2-9.54,3.63-30.45,23.16-58.49,48.85-81.89,79.29-27.65,35.94-46,75.64-48.78,121.57-.1,1.66-1,3.26-1.89,5.73-9.47-1.47-15.87-7.58-22.33-13.08-13.81-11.76-22.5-26.52-24.73-44.82-1.32-10.86-.32-21.35,5.34-30.82,6.73-11.24,13.13-22.84,21.21-33.06,17.44-22,35.27-43.8,54-64.69,21.29-23.69,43.81-46.27,65.75-69.37C1641.92,3336.94,1645,3333.2,1649.59,3328Z"/><path class="cls-1" d="M2545.71,3356.49a149.54,149.54,0,0,1-35.88-37.41,63.35,63.35,0,0,1-10.29-25.92c-2.54-17,4.24-36.58,30.4-38.44a137.78,137.78,0,0,1,18.73-.23q42.06,2.78,84.08,6c26.78,2,53.54,4.24,80.32,6.18,6.12.44,12.3.06,18.39.06,1.28-7.94-2.31-13.32-4.68-18.94-10-23.65-22.56-45.94-36-67.77-31.47-51.16-67.48-99.09-104.75-146.11-8.14-10.28-16.26-20.59-24.72-30.61a15.52,15.52,0,0,1-3.24-15.66c.72-2.39,1.53-4.75,2.35-7.1,12.5-35.61,40.7-48.84,75.83-35.64,4.39,1.66,7,4.57,8.83,8.93,29.06,69.6,70.21,132.27,112.28,194.31,24.88,36.7,51.11,72.48,76.78,108.64,2.88,4.06,6,7.93,9.44,12.39,3.54,0,7.28.55,10.8-.09q61.82-11.17,124.4-16.33c26.13-2.13,52.39-2.67,78.6-3.82a63.62,63.62,0,0,1,11.21.52c17.34,2.32,27.25,11.7,28.77,29.23,2.5,28.73-2.86,55.83-19.5,81.17-2.57-1.35-5-2-6.53-3.53-17.16-16.54-37.93-26.35-60.78-31.59-55.85-12.82-95.06-12.87-147.27,3.26,3.35,4.12,6.09,8.06,9.38,11.48,36.39,37.81,72.77,75.66,105.63,116.64,11.31,14.11,21.57,29.08,31.9,43.94,18.88,27.16,10.22,52.72-5.15,72.58-7.68,9.92-17.27,17.64-29.66,24.73-1.33-4.83-2.72-8.08-3.08-11.44-5.22-47.64-26.41-88-56.24-124.53-22.26-27.24-48.11-50.72-75.89-72.16-1.82-1.41-4-2.3-7.77-4.38-.51,5.06-1.12,8.49-1.17,11.92-.43,34.36-.6,68.72-1.22,103.07-.37,20.6-1,41.22-5.9,61.42-3,12.2-7,23.91-13.79,34.63-16.9,26.87-48.49,30-69,20.48-1-.48-1.64-1.81-2.9-3.26,22.51-38.48,28.75-81.66,33.74-125.19,5.42-47.24,7.16-94.65,7.14-142.15,0-4.94-.44-9.89-.71-15.48-4.49-1.28-8.51-2.94-12.69-3.53-42.84-6-85.85-8.17-128.94-3.8a312.64,312.64,0,0,0-42.33,7.69A110,110,0,0,0,2545.71,3356.49Z"/><path class="cls-1" d="M2248.52,1155.68c-2.38-8.17-4.1-14-5.8-19.86-12.86-44.1-36-82.13-68.52-114.34-21.32-21.08-46.23-35.59-76.39-40.66-16.52-2.77-32.31-1.12-48,3.77-13.69,4.27-27.21,9-40.88,13.4a119.79,119.79,0,0,1-14.52,3.47c-2.35.44-4.86.08-8.15.08-14.52-22.94-26.4-46.69-30.39-73.73-2.64-17.88,3.69-30,19.72-38.57,12.89-6.86,27-10.06,41.32-11.17,48.15-3.74,96-2.45,143,10.28a204.57,204.57,0,0,1,48.45,19.58c42,24.05,64.77,60.94,71.57,108.26,3.6,25.06,2.42,49.78-6,73.9-6.59,18.82-13,37.71-19.7,56.5C2253.34,1149.21,2251.26,1151.43,2248.52,1155.68Z"/><path class="cls-1" d="M2312.22,1010.47c-1.59-5.74-3-10.52-4.22-15.35-4.72-18.92-11.14-37.16-23.05-52.84-5.9-7.76-6.25-16-4.62-24.85,3.62-19.62,17.77-28.48,37.17-23,4.65,1.31,9,3.76,14.67,6.21-14,22.32-12.06,44.08-2.41,66.28,22.68-9.25,36.56-26.86,40.77-51.61,8.51-.67,15,4,21.24,8.84a25.27,25.27,0,0,1,9.87,19.44c1.27,25.81-6.48,56.08-45.7,65.62C2341.11,1012.82,2329.87,1013.39,2312.22,1010.47Z"/><path class="cls-1" d="M1803.67,4228.33c-28.7-6.89-55.39-12.82-79.73-26.19-.55-.3-1-.67-1.59-1-35.52-20.55-38.29-53.09-24.3-83.84,6.31-13.85,17.12-23.14,32.1-26.37,8.46-1.82,17.35-3.23,25.9-2.68,26.93,1.75,52.5,9.89,79.12,18.07-2.69,21-9.67,40.33-14.75,60C1815.29,4186.28,1809.71,4206.08,1803.67,4228.33Z"/><path class="cls-1" d="M1791.57,4272.51c-10.08,38.28-19.2,74.43-30.09,110-3.06,0-5,.39-6.66-.06-16.89-4.5-33.77-9-50.59-13.78-12.74-3.6-24.55-9.17-34.64-18-12.08-10.52-18.29-23.8-16.78-39.81a91.65,91.65,0,0,1,5.38-23.58c7.58-20,22.26-31.1,44-32.21a91.4,91.4,0,0,1,9.36-.22C1738.56,4256.12,1764.06,4264.14,1791.57,4272.51Z"/><path class="cls-1" d="M599,3159.08c-3.49,2.35-5.83,4.41-8.55,5.69-81.16,38.23-162.16,76.83-244.28,115.08-2.51-4.1-4.68-7-6.22-10.26-7.82-16.32-15.69-32.61-23.12-49.11-7.74-17.19-12.66-35.15-13.42-54.15-1.71-43,14.48-78.13,47.69-104.88,29.89-24.08,64.41-38,102.86-40.68,25.81-1.82,49.38,5.29,70.25,20.86,13.15,9.83,23.91,21.9,33,35.45C574.4,3102.57,585.12,3131.26,599,3159.08Z"/><path class="cls-1" d="M4428.53,2389.19a35.78,35.78,0,0,1,1,4.44c-.69,26.89-2.36,53.84-8.47,80-11.2,47.89-39.29,82.19-87.53,96.22-46.59,13.55-91.8,6.78-134.13-16.17-28-15.16-43.76-40.21-51.1-70.81-4.56-19-5-38.4-3.62-57.79,1.16-16.2,2.9-32.36,4.6-48.51.45-4.25,1.72-8.41,2.75-13.25,3.46-.2,6.53-.79,9.52-.5C4250.32,2371.51,4339.12,2380.32,4428.53,2389.19Z"/><path class="cls-1" d="M1968.11,234.73c-5-36.5-9-72.79-12.3-108.48,1.9-1.54,2.77-2.84,3.78-3,21-2.48,42-5.1,63-7.1,10.66-1,21.17,1.2,31.2,4.82,35,12.66,46,57.14,20.28,84.2A72.19,72.19,0,0,1,2051.34,221c-10.12,4.48-21.18,7.34-32.13,9.33-14.06,2.55-28.4,3.61-42.64,5.14C1974.21,235.74,1971.76,235.09,1968.11,234.73Z"/><path class="cls-1" d="M511.7,1009c24,3.39,175.06,41.31,189.05,47.29-1.06,2.19-1.8,4.55-3.17,6.47-26.48,36.92-53,73.8-80.34,111.74-3-3-5.42-4.8-6.92-7.17q-47.62-75-95-150C514,1015.23,513.35,1012.82,511.7,1009Z"/></g></g></svg>